<svg id="svg" version="1.1" xmlns="http://www.w3.org/2000/svg" xmlns:xlink="http://www.w3.org/1999/xlink" width="400" height="400" viewBox="0, 0, 400,400"><g id="svgg"><path id="path0" d="M349.512 74.372 C 349.136 74.657,348.828 75.110,348.828 75.378 C 348.828 75.646,348.570 75.766,348.255 75.645 C 347.939 75.524,347.566 75.612,347.425 75.840 C 347.244 76.133,347.092 76.133,346.910 75.839 C 346.751 75.580,346.471 75.713,346.174 76.189 C 345.835 76.732,345.824 76.927,346.138 76.857 C 346.382 76.802,346.671 77.002,346.779 77.300 C 346.890 77.606,346.801 77.735,346.576 77.596 C 346.356 77.460,346.082 77.591,345.969 77.888 C 345.827 78.257,345.985 78.369,346.470 78.242 C 347.258 78.036,347.894 78.713,347.272 79.098 C 347.054 79.233,346.875 79.130,346.875 78.869 C 346.875 78.574,346.579 78.663,346.094 79.102 C 345.609 79.540,345.313 79.629,345.313 79.334 C 345.313 79.074,345.114 78.983,344.872 79.133 C 344.574 79.316,344.653 79.529,345.114 79.787 C 345.587 80.052,345.885 80.025,346.086 79.700 C 346.282 79.383,346.445 79.495,346.589 80.045 C 346.835 80.986,346.851 80.979,345.533 80.478 C 344.882 80.231,344.531 80.231,344.531 80.478 C 344.531 80.688,344.717 80.859,344.945 80.859 C 345.172 80.859,345.232 81.065,345.076 81.316 C 344.887 81.622,345.005 81.692,345.432 81.528 C 345.784 81.393,346.301 81.513,346.582 81.794 C 346.996 82.208,347.181 82.210,347.558 81.806 C 347.919 81.420,347.917 81.269,347.547 81.137 C 347.285 81.043,347.212 80.816,347.385 80.631 C 347.855 80.130,348.464 81.333,348.015 81.875 C 347.674 82.286,348.326 82.850,349.284 82.974 C 349.427 82.993,349.691 83.168,349.870 83.363 C 350.056 83.567,350.005 83.610,349.751 83.465 C 349.507 83.326,349.077 83.489,348.796 83.828 C 348.369 84.342,348.378 84.431,348.849 84.363 C 349.942 84.207,350.391 84.381,350.391 84.961 C 350.391 85.283,350.204 85.547,349.977 85.547 C 349.749 85.547,349.692 85.756,349.850 86.011 C 350.046 86.328,350.259 86.203,350.519 85.621 C 350.729 85.150,351.056 84.766,351.245 84.766 C 351.435 84.766,351.408 84.425,351.185 84.008 C 350.915 83.504,350.910 83.169,351.171 83.008 C 351.552 82.773,351.717 83.054,351.595 83.733 C 351.562 83.916,351.739 84.312,351.987 84.611 C 352.345 85.043,352.294 85.156,351.741 85.156 C 350.435 85.156,351.445 85.567,353.168 85.737 C 354.454 85.864,354.712 85.808,354.199 85.512 C 353.823 85.295,353.504 84.819,353.491 84.453 C 353.473 83.968,353.371 84.025,353.113 84.668 C 352.919 85.151,352.682 85.547,352.588 85.547 C 352.333 85.547,352.795 83.856,353.188 83.350 C 353.600 82.820,353.185 81.557,352.698 81.858 C 352.508 81.976,352.453 81.810,352.576 81.490 C 352.703 81.160,353.080 80.998,353.450 81.116 C 353.970 81.282,353.992 81.246,353.556 80.936 C 353.251 80.718,353.120 80.263,353.259 79.902 C 353.404 79.523,353.347 79.355,353.121 79.495 C 352.908 79.626,352.734 79.981,352.734 80.284 C 352.734 80.615,352.499 80.744,352.144 80.608 C 351.720 80.446,351.622 80.561,351.797 81.016 C 351.983 81.501,351.877 81.587,351.343 81.382 C 350.806 81.176,350.702 81.262,350.892 81.756 C 351.158 82.450,350.587 83.055,350.222 82.465 C 350.099 82.267,349.604 82.202,349.121 82.321 C 348.611 82.446,348.379 82.390,348.568 82.187 C 348.880 81.850,349.037 81.798,350.075 81.689 C 350.331 81.663,350.199 81.383,349.782 81.067 C 349.061 80.522,349.380 80.240,350.505 80.428 C 350.675 80.457,350.619 80.114,350.379 79.666 C 350.140 79.218,350.025 78.249,350.124 77.512 C 350.276 76.382,350.185 76.172,349.543 76.172 C 349.125 76.172,348.892 75.993,349.027 75.775 C 349.162 75.557,349.436 75.479,349.636 75.603 C 349.836 75.726,350.013 75.685,350.030 75.511 C 350.046 75.338,350.119 74.888,350.191 74.512 C 350.345 73.707,350.378 73.714,349.512 74.372 M348.438 76.627 C 348.438 76.856,348.136 76.922,347.754 76.776 C 347.240 76.581,347.181 76.628,347.517 76.966 C 347.850 77.302,348.172 77.304,348.786 76.976 C 349.457 76.616,349.609 76.646,349.609 77.135 C 349.609 77.485,349.243 77.751,348.730 77.773 C 347.894 77.810,347.898 77.826,348.828 78.095 L 349.805 78.378 348.926 78.668 C 348.218 78.902,348.122 79.098,348.431 79.675 C 348.756 80.282,348.691 80.360,348.007 80.181 C 347.477 80.042,347.357 79.873,347.657 79.687 C 348.194 79.355,348.183 79.258,347.459 77.862 C 347.061 77.095,347.024 76.658,347.326 76.294 C 347.774 75.754,348.438 75.953,348.438 76.627 M352.779 76.136 C 352.348 76.409,352.409 76.570,353.083 76.931 C 353.548 77.179,353.808 77.577,353.662 77.814 C 353.504 78.069,353.573 78.136,353.829 77.978 C 354.067 77.830,354.153 77.422,354.018 77.072 C 353.841 76.611,353.917 76.523,354.291 76.754 C 354.628 76.962,354.715 76.923,354.540 76.640 C 354.393 76.401,353.985 76.316,353.634 76.451 C 353.208 76.614,353.090 76.544,353.279 76.238 C 353.614 75.696,353.508 75.675,352.779 76.136 M342.498 78.288 C 341.893 78.734,341.985 79.688,342.634 79.688 C 342.843 79.688,342.892 79.489,342.742 79.246 C 342.576 78.977,342.681 78.879,343.012 78.994 C 343.310 79.098,343.503 79.516,343.441 79.923 C 343.348 80.526,343.399 80.557,343.711 80.091 C 343.967 79.710,343.957 79.351,343.680 79.017 C 343.383 78.660,343.390 78.516,343.702 78.516 C 343.943 78.516,344.141 78.369,344.141 78.190 C 344.141 77.729,343.178 77.786,342.498 78.288 M350.391 78.893 C 350.391 79.100,350.786 79.461,351.270 79.695 C 352.058 80.077,352.079 80.065,351.471 79.573 C 351.098 79.271,350.908 78.910,351.048 78.770 C 351.188 78.630,351.097 78.516,350.846 78.516 C 350.596 78.516,350.391 78.685,350.391 78.893 M355.763 78.985 C 355.631 79.330,355.616 79.704,355.729 79.818 C 356.030 80.119,357.031 79.668,357.031 79.232 C 357.031 79.027,356.870 78.960,356.674 79.081 C 356.477 79.202,356.246 79.090,356.160 78.831 C 356.057 78.523,355.920 78.577,355.763 78.985 M357.614 79.358 C 357.649 79.825,357.971 80.251,358.331 80.304 C 359.166 80.426,359.154 80.227,358.268 79.277 C 357.558 78.514,357.552 78.515,357.614 79.358 M358.313 81.288 C 358.342 81.667,358.505 81.891,358.675 81.786 C 358.845 81.681,358.984 81.766,358.984 81.976 C 358.984 82.185,358.765 82.445,358.496 82.554 C 358.105 82.711,358.105 82.757,358.496 82.782 C 358.765 82.799,358.984 83.168,358.984 83.603 C 358.984 84.356,358.934 84.364,357.910 83.768 C 356.838 83.145,356.838 83.145,357.767 83.842 C 359.234 84.941,359.587 84.810,359.616 83.156 C 359.630 82.322,359.500 81.641,359.325 81.641 C 359.151 81.641,359.099 81.406,359.209 81.120 C 359.319 80.831,359.153 80.599,358.835 80.599 C 358.520 80.599,358.285 80.909,358.313 81.288 M336.475 84.277 C 335.450 85.942,333.185 89.590,331.442 92.383 C 329.698 95.176,326.276 100.713,323.838 104.688 C 321.400 108.662,318.846 112.793,318.161 113.867 C 317.176 115.414,311.826 124.171,311.061 125.488 C 310.968 125.649,310.978 125.781,311.083 125.781 C 311.267 125.781,312.802 123.323,322.061 108.203 C 324.363 104.443,326.912 100.313,327.726 99.023 C 329.208 96.676,337.890 82.657,338.431 81.738 C 338.589 81.470,338.632 81.250,338.527 81.250 C 338.423 81.250,337.499 82.612,336.475 84.277 M360.027 81.804 C 359.909 82.113,360.182 82.603,360.643 82.909 C 361.289 83.338,361.356 83.530,360.949 83.782 C 360.599 83.998,360.519 83.956,360.705 83.654 C 360.858 83.406,360.783 83.203,360.537 83.203 C 360.292 83.203,360.169 83.423,360.263 83.691 C 360.358 83.960,360.688 84.161,360.997 84.139 C 361.327 84.115,361.591 84.501,361.639 85.079 C 361.716 86.007,361.681 86.025,361.003 85.411 C 360.411 84.875,360.286 84.861,360.286 85.333 C 360.286 85.646,360.433 85.813,360.612 85.702 C 360.935 85.503,361.089 86.072,360.967 87.012 C 360.932 87.280,361.284 87.500,361.749 87.500 C 362.495 87.500,362.532 87.421,362.060 86.839 C 361.765 86.476,361.723 86.298,361.967 86.444 C 362.226 86.599,362.500 86.370,362.625 85.894 C 362.742 85.445,363.010 85.184,363.221 85.314 C 363.431 85.444,363.544 85.242,363.472 84.865 C 363.400 84.488,363.325 84.092,363.305 83.984 C 363.285 83.877,363.088 84.053,362.867 84.375 C 362.549 84.839,362.489 84.758,362.580 83.989 C 362.644 83.454,362.520 82.991,362.305 82.960 C 361.021 82.773,360.233 82.287,360.420 81.797 C 360.536 81.496,360.543 81.250,360.435 81.250 C 360.328 81.250,360.144 81.500,360.027 81.804 M361.949 81.609 C 362.166 82.026,362.062 82.096,361.532 81.893 C 360.955 81.672,360.911 81.724,361.290 82.181 C 361.756 82.742,362.692 82.807,363.075 82.303 C 363.188 82.154,363.167 82.116,363.027 82.220 C 362.887 82.325,362.522 82.105,362.217 81.732 C 361.911 81.360,361.791 81.304,361.949 81.609 M355.978 82.705 C 356.045 83.183,356.221 83.695,356.370 83.844 C 356.785 84.259,356.680 83.085,356.243 82.422 C 355.937 81.957,355.882 82.015,355.978 82.705 M363.678 83.896 C 363.689 84.431,364.441 85.379,364.447 84.867 C 364.451 84.538,364.696 84.591,365.214 85.034 C 365.633 85.393,365.872 85.853,365.746 86.058 C 365.620 86.262,365.760 86.348,366.059 86.249 C 366.763 86.014,366.769 84.925,366.065 85.075 C 365.699 85.152,365.613 84.970,365.793 84.501 C 365.938 84.122,365.942 83.928,365.801 84.069 C 365.660 84.210,365.123 84.165,364.608 83.969 C 364.093 83.773,363.675 83.741,363.678 83.896 M355.568 85.604 C 355.332 85.840,355.232 86.275,355.346 86.571 C 355.582 87.186,354.858 87.311,354.492 86.719 C 354.359 86.504,353.866 86.349,353.395 86.373 C 352.602 86.415,352.596 86.433,353.320 86.611 C 353.750 86.716,354.321 86.981,354.590 87.199 C 354.924 87.470,355.248 87.454,355.615 87.150 C 356.048 86.791,356.152 86.904,356.152 87.730 C 356.152 88.443,356.053 88.594,355.825 88.225 C 355.561 87.799,355.361 87.843,354.799 88.455 C 354.258 89.044,354.247 89.106,354.747 88.732 C 355.118 88.454,355.451 88.407,355.528 88.621 C 355.716 89.135,357.978 89.349,358.135 88.867 C 358.206 88.652,358.632 87.819,359.084 87.016 C 359.535 86.213,359.797 85.448,359.665 85.316 C 359.340 84.991,357.617 86.231,357.617 86.791 C 357.617 87.038,357.354 87.312,357.031 87.400 C 356.682 87.495,356.603 87.429,356.836 87.237 C 357.051 87.059,357.253 86.595,357.285 86.204 C 357.317 85.814,357.246 85.593,357.126 85.713 C 357.006 85.833,356.703 85.761,356.452 85.553 C 356.156 85.306,355.848 85.324,355.568 85.604 M358.548 87.109 C 357.750 88.640,357.407 88.918,356.918 88.428 C 356.784 88.294,357.062 87.860,357.536 87.465 C 358.010 87.069,358.233 86.739,358.031 86.732 C 357.740 86.721,358.918 85.607,359.271 85.559 C 359.321 85.552,358.996 86.250,358.548 87.109 M366.935 86.810 C 366.830 86.982,366.591 87.028,366.406 86.914 C 366.221 86.800,365.942 86.912,365.786 87.165 C 365.590 87.482,365.762 87.555,366.345 87.403 C 366.808 87.282,367.285 87.342,367.405 87.537 C 367.526 87.731,367.834 87.888,368.089 87.885 C 368.397 87.881,368.374 87.764,368.020 87.540 C 367.588 87.266,367.625 87.121,368.215 86.786 C 368.884 86.406,368.869 86.376,368.037 86.435 C 367.537 86.470,367.041 86.639,366.935 86.810 M359.370 87.109 C 359.061 87.745,359.136 89.067,359.464 88.739 C 359.670 88.533,359.755 88.038,359.652 87.639 C 359.550 87.240,359.423 87.002,359.370 87.109 M309.858 127.441 C 308.221 130.202,307.387 131.823,308.083 130.889 C 309.018 129.636,311.000 126.172,310.782 126.172 C 310.688 126.172,310.272 126.743,309.858 127.441 M306.219 133.496 C 305.737 134.302,305.016 135.328,304.617 135.776 C 303.949 136.525,303.899 137.273,303.996 145.092 L 304.102 153.594 305.895 154.275 C 308.421 155.234,310.816 156.971,314.339 160.399 L 317.383 163.362 325.288 159.419 L 333.194 155.476 331.383 153.812 C 329.259 151.861,328.516 150.311,328.516 147.838 C 328.516 146.311,328.413 146.071,327.832 146.242 C 322.394 147.839,317.263 145.250,315.985 140.264 C 315.345 137.767,314.632 137.390,312.089 138.203 C 309.900 138.903,308.923 138.700,306.737 137.091 L 305.075 135.867 305.802 134.828 C 306.726 133.508,307.503 132.031,307.272 132.031 C 307.175 132.031,306.701 132.690,306.219 133.496 M104.579 171.119 C 92.081 173.155,85.271 199.333,94.897 208.337 C 101.092 214.132,114.588 209.807,111.137 203.133 C 110.246 201.410,109.276 201.325,107.157 202.782 C 99.366 208.142,94.448 198.852,98.516 186.460 C 100.815 179.458,106.317 175.804,108.422 179.883 C 109.777 182.509,112.236 181.877,113.309 178.628 C 114.810 174.078,110.288 170.188,104.579 171.119 M126.690 171.117 C 113.465 173.683,108.974 204.036,120.898 210.259 C 129.209 214.596,138.072 205.617,139.438 191.475 C 140.724 178.168,135.267 169.453,126.690 171.117 M146.014 171.131 C 144.880 171.567,144.727 171.891,144.358 174.622 C 142.956 184.992,142.037 208.024,142.957 209.743 L 143.446 210.658 150.141 210.423 C 159.907 210.081,161.328 209.530,161.328 206.086 C 161.328 203.105,161.087 203.005,155.081 203.486 C 152.201 203.717,149.703 203.906,149.531 203.906 C 148.661 203.906,149.514 188.897,151.047 177.233 C 151.622 172.863,151.633 172.169,151.136 171.671 C 150.396 170.932,147.363 170.611,146.014 171.131 M170.117 170.911 C 169.902 170.974,169.249 171.130,168.666 171.259 C 166.723 171.687,164.867 187.248,164.850 203.248 C 164.841 211.394,164.624 211.219,173.872 210.541 C 182.074 209.939,182.819 209.576,182.807 206.178 C 182.796 203.340,182.808 203.344,176.793 203.746 L 171.483 204.102 171.488 201.367 C 171.494 197.507,172.178 188.210,172.895 182.227 C 173.910 173.764,173.987 172.100,173.386 171.626 C 172.812 171.172,170.758 170.723,170.117 170.911 M198.473 171.076 C 197.413 171.250,196.480 171.692,196.047 172.226 C 194.412 174.245,185.156 205.407,185.156 208.892 C 185.156 209.982,185.935 210.509,187.930 210.772 C 190.475 211.108,190.899 210.592,192.137 205.652 L 193.210 201.367 198.018 200.967 C 201.300 200.694,202.863 200.694,202.942 200.967 C 203.005 201.187,203.359 203.343,203.729 205.757 C 204.482 210.676,204.743 211.072,207.202 211.035 C 211.310 210.973,211.289 212.705,207.451 190.039 C 204.570 173.026,204.251 171.630,203.181 171.331 C 201.629 170.898,200.074 170.814,198.473 171.076 M219.727 171.055 C 216.631 171.444,215.705 171.983,215.457 173.540 C 214.985 176.504,214.003 192.690,213.787 201.061 L 213.553 210.130 214.615 210.534 C 217.502 211.632,225.743 210.641,229.659 208.724 C 237.975 204.656,239.790 193.277,232.734 189.446 L 230.923 188.463 232.460 187.173 C 236.525 183.761,237.007 177.326,233.456 173.884 C 230.928 171.434,225.539 170.323,219.727 171.055 M253.182 171.109 C 239.690 173.876,234.675 203.920,246.680 210.061 C 255.516 214.580,264.480 206.113,266.015 191.795 C 267.471 178.211,261.950 169.310,253.182 171.109 M281.341 171.145 C 280.363 171.373,279.443 171.886,279.117 172.388 C 277.411 175.004,267.972 206.227,267.969 209.264 C 267.969 209.901,268.993 210.399,270.982 210.729 C 273.449 211.137,274.224 210.156,275.319 205.236 L 276.198 201.292 281.165 200.897 C 287.088 200.425,286.176 199.753,287.158 205.310 C 287.610 207.868,288.157 210.181,288.374 210.449 C 288.981 211.202,292.341 211.060,293.356 210.238 L 294.220 209.538 292.038 196.859 C 290.837 189.885,289.431 181.566,288.912 178.371 C 287.716 170.995,286.594 169.924,281.341 171.145 M304.313 171.513 C 301.316 172.046,300.486 172.692,300.217 174.700 C 299.164 182.561,297.832 207.290,298.359 209.180 C 298.674 210.308,298.780 210.356,301.188 210.470 C 304.608 210.632,304.688 210.487,304.688 204.072 C 304.688 199.059,304.711 198.913,305.566 198.684 C 307.433 198.183,307.713 198.402,309.374 201.660 C 313.629 210.005,316.329 212.225,319.571 210.045 C 321.499 208.749,321.391 208.016,318.729 204.313 C 317.422 202.495,315.728 199.890,314.964 198.524 L 313.575 196.040 314.502 195.397 C 323.985 188.822,324.903 175.569,316.104 172.253 C 313.507 171.275,307.701 170.910,304.313 171.513 M328.849 171.370 C 326.896 171.670,326.506 172.599,326.143 177.812 C 325.958 180.455,325.621 185.254,325.393 188.477 C 324.591 199.798,324.426 209.996,325.038 210.383 C 326.812 211.505,335.197 210.236,338.826 208.296 C 349.281 202.706,353.202 184.186,345.731 175.677 C 342.726 172.255,335.345 170.371,328.849 171.370 M228.367 178.260 C 231.026 181.351,228.537 185.277,223.120 186.536 L 221.027 187.022 221.271 183.257 C 221.405 181.186,221.607 178.902,221.720 178.180 L 221.926 176.868 224.682 177.024 C 227.110 177.161,227.549 177.308,228.367 178.260 M313.410 178.392 C 318.587 181.043,314.207 190.532,307.066 192.136 L 305.469 192.495 305.468 191.267 C 305.467 189.673,306.260 179.748,306.476 178.638 C 306.744 177.265,310.919 177.118,313.410 178.392 M338.257 178.308 C 346.880 182.767,342.514 202.176,332.467 204.052 L 331.144 204.298 331.412 198.927 C 331.691 193.325,332.248 185.060,332.678 180.129 L 332.929 177.250 335.053 177.499 C 336.221 177.637,337.663 178.000,338.257 178.308 M130.438 178.745 C 134.664 182.301,133.304 199.231,128.466 203.302 C 126.660 204.822,124.636 204.680,123.098 202.928 C 116.757 195.706,123.641 173.026,130.438 178.745 M256.559 178.346 C 262.104 182.230,259.633 202.130,253.348 204.206 C 246.550 206.452,244.303 190.156,250.139 180.943 C 251.943 178.095,254.642 177.003,256.559 178.346 M200.949 186.355 C 202.253 194.759,202.274 194.376,200.488 194.671 C 198.706 194.966,194.922 194.999,194.922 194.720 C 194.922 194.335,197.325 185.724,198.331 182.504 C 199.619 178.384,199.739 178.561,200.949 186.355 M284.335 185.599 C 284.775 188.256,285.248 191.336,285.386 192.443 L 285.638 194.456 282.746 194.727 C 277.694 195.200,277.919 195.757,280.055 188.086 C 283.038 177.371,282.978 177.406,284.335 185.599 M78.642 187.757 C 78.784 187.898,78.721 188.229,78.502 188.493 C 78.226 188.825,78.257 189.030,78.603 189.162 C 78.913 189.281,79.123 189.003,79.158 188.427 C 79.189 187.917,79.028 187.500,78.800 187.500 C 78.572 187.500,78.501 187.616,78.642 187.757 M226.921 193.350 C 234.181 195.432,229.638 204.688,221.355 204.688 L 219.806 204.688 220.081 199.131 C 220.259 195.521,220.519 193.470,220.822 193.277 C 221.489 192.854,225.350 192.900,226.921 193.350 M147.363 261.207 C 147.739 261.305,148.354 261.305,148.730 261.207 C 149.106 261.109,148.799 261.028,148.047 261.028 C 147.295 261.028,146.987 261.109,147.363 261.207 M150.488 261.217 C 151.079 261.307,152.046 261.307,152.637 261.217 C 153.228 261.128,152.744 261.055,151.563 261.055 C 150.381 261.055,149.897 261.128,150.488 261.217 " stroke="none" fill="#f1ca8e" fill-rule="evenodd"></path><path id="path1" d="M354.785 50.403 C 354.302 50.597,353.906 50.825,353.906 50.910 C 353.906 51.199,355.871 50.689,356.084 50.344 C 356.345 49.921,355.938 49.939,354.785 50.403 M355.576 51.372 C 347.764 53.069,344.768 56.138,334.570 72.888 C 321.563 94.253,307.842 116.896,303.407 124.316 L 300.664 128.906 271.812 128.906 L 242.961 128.906 245.826 125.580 C 258.225 111.186,256.875 95.255,242.218 82.985 C 240.494 81.542,239.169 80.222,239.274 80.051 C 239.380 79.881,239.260 79.614,239.009 79.459 C 238.723 79.282,238.656 79.345,238.830 79.627 C 239.324 80.426,238.765 80.127,234.678 77.405 C 217.507 65.971,185.041 53.906,171.446 53.906 C 170.822 53.906,170.313 53.774,170.313 53.613 C 170.313 53.274,170.234 53.271,155.273 52.921 C 119.507 52.086,88.598 63.639,61.379 88.015 C 13.070 131.279,1.660 207.460,35.284 262.248 C 36.715 264.580,37.786 266.650,37.664 266.848 C 37.542 267.045,37.616 267.159,37.828 267.100 C 38.357 266.953,42.988 273.481,42.694 273.957 C 42.564 274.168,42.632 274.231,42.846 274.099 C 43.060 273.967,43.648 274.423,44.152 275.113 C 51.680 285.406,64.741 297.129,77.539 305.082 C 79.688 306.417,81.574 307.709,81.732 307.954 C 81.890 308.198,82.022 308.255,82.025 308.079 C 82.029 307.903,83.657 308.636,85.645 309.708 C 96.375 315.495,119.755 323.426,126.116 323.436 C 126.765 323.437,126.972 323.607,126.817 324.011 C 126.696 324.326,126.792 324.705,127.031 324.853 C 127.283 325.009,127.355 324.944,127.202 324.697 C 126.640 323.786,133.559 324.054,134.375 324.975 C 134.595 325.223,134.257 325.207,148.536 325.651 C 154.283 325.830,158.985 325.845,158.985 325.684 C 158.985 325.522,159.819 325.389,160.840 325.388 C 178.590 325.358,207.743 315.957,228.125 303.690 C 262.166 283.203,267.936 266.634,249.206 243.164 C 248.957 242.853,259.900 242.700,260.938 243.001 C 261.045 243.032,261.706 243.051,262.406 243.044 C 263.106 243.037,263.579 243.193,263.457 243.391 C 263.335 243.588,263.411 243.750,263.626 243.750 C 263.841 243.750,264.121 243.581,264.249 243.374 C 264.576 242.844,269.609 242.942,270.290 243.491 C 270.726 243.843,270.787 243.835,270.560 243.457 C 270.347 243.104,270.644 242.969,271.634 242.969 C 272.386 242.969,273.109 243.145,273.242 243.359 C 273.375 243.574,273.659 243.750,273.874 243.750 C 274.089 243.750,274.156 243.574,274.023 243.359 C 273.677 242.799,274.744 242.877,275.370 243.457 C 275.791 243.848,275.841 243.848,275.620 243.457 C 275.288 242.869,276.017 242.794,276.379 243.378 C 276.540 243.639,276.797 243.654,277.086 243.418 C 277.784 242.850,282.908 242.884,283.274 243.461 C 283.518 243.845,283.583 243.845,283.588 243.457 C 283.591 243.188,283.857 242.969,284.180 242.969 C 284.502 242.969,284.766 243.166,284.766 243.407 C 284.766 243.727,284.906 243.729,285.283 243.416 C 285.661 243.102,285.938 243.116,286.317 243.466 C 286.625 243.752,286.734 243.768,286.588 243.505 C 286.420 243.206,286.891 243.079,288.060 243.107 C 289.005 243.130,289.713 243.255,289.633 243.384 C 289.553 243.514,289.736 243.620,290.039 243.620 C 290.342 243.620,290.500 243.473,290.389 243.294 C 290.279 243.115,292.132 242.969,294.508 242.969 C 297.701 242.969,298.830 243.096,298.834 243.457 C 298.838 243.774,298.941 243.803,299.127 243.539 C 299.572 242.908,304.434 242.817,304.056 243.446 C 303.825 243.831,303.885 243.844,304.320 243.503 C 305.140 242.858,314.114 242.818,314.528 243.457 C 314.769 243.830,314.915 243.836,315.144 243.482 C 315.318 243.214,316.429 243.011,317.781 243.000 C 319.066 242.990,321.561 242.919,323.325 242.842 C 325.089 242.765,326.452 242.831,326.354 242.990 C 326.256 243.148,326.448 243.382,326.780 243.509 C 327.126 243.642,327.282 243.576,327.146 243.355 C 327.014 243.143,327.171 242.969,327.493 242.969 C 327.815 242.969,328.181 243.133,328.305 243.335 C 328.429 243.536,328.867 243.675,329.278 243.644 C 329.688 243.613,329.955 243.477,329.871 243.341 C 329.788 243.205,330.503 243.065,331.461 243.028 C 332.535 242.988,333.203 243.132,333.203 243.404 C 333.203 243.718,333.347 243.726,333.703 243.431 C 334.372 242.875,336.768 242.950,336.453 243.516 C 336.321 243.752,336.450 243.726,336.740 243.457 C 337.029 243.188,337.635 242.969,338.086 242.969 C 338.537 242.969,339.143 243.188,339.432 243.457 C 339.832 243.828,339.894 243.831,339.688 243.466 C 339.358 242.880,344.012 242.835,344.374 243.420 C 344.506 243.635,344.861 243.577,345.227 243.281 C 345.696 242.900,345.780 242.896,345.560 243.262 C 345.375 243.569,345.492 243.750,345.875 243.750 C 346.210 243.750,346.484 243.574,346.484 243.359 C 346.484 243.145,346.846 242.969,347.289 242.969 C 347.731 242.969,347.984 243.145,347.852 243.359 C 347.717 243.577,348.009 243.747,348.512 243.744 C 349.222 243.739,349.291 243.660,348.838 243.374 C 348.473 243.143,351.507 243.006,357.159 243.000 C 362.052 242.994,366.223 242.887,366.426 242.761 C 366.630 242.635,366.797 242.729,366.797 242.969 C 366.797 243.209,366.947 243.312,367.131 243.199 C 367.315 243.085,370.172 242.884,373.479 242.753 C 380.523 242.472,382.268 241.923,384.786 239.190 C 386.219 237.636,386.787 236.650,387.641 234.237 C 388.088 232.974,387.942 138.082,387.492 136.850 C 387.269 136.241,387.022 135.566,386.943 135.352 C 386.320 133.653,384.155 131.581,381.779 130.412 L 379.135 129.110 368.292 128.964 L 357.449 128.818 358.305 127.331 C 358.776 126.513,359.268 125.910,359.398 125.991 C 359.529 126.072,359.643 125.926,359.653 125.666 C 359.663 125.407,364.625 117.285,370.681 107.617 C 386.329 82.634,387.466 79.724,385.298 70.194 C 384.946 68.648,384.698 67.315,384.745 67.231 C 384.793 67.148,384.686 66.972,384.506 66.841 C 384.327 66.709,383.568 65.371,382.821 63.867 C 381.590 61.389,375.483 54.389,374.506 54.337 C 374.342 54.328,372.935 53.717,371.381 52.979 C 366.672 50.745,361.079 50.176,355.576 51.372 M368.994 59.166 C 377.728 63.482,381.240 72.767,377.709 82.206 C 376.635 85.076,363.927 106.146,343.770 138.477 C 339.751 144.922,335.706 151.426,334.779 152.930 L 333.095 155.664 325.476 159.375 C 314.037 164.946,314.882 164.564,315.895 163.715 L 316.751 162.998 314.723 160.925 C 311.100 157.220,306.275 153.906,304.505 153.906 C 303.985 153.906,303.906 152.779,303.906 145.366 L 303.906 136.825 306.285 132.963 C 307.593 130.839,313.854 120.664,320.197 110.352 C 326.541 100.039,333.150 89.316,334.883 86.523 C 341.154 76.420,346.240 68.130,347.175 66.491 C 351.887 58.223,360.938 55.184,368.994 59.166 M165.430 64.086 C 188.151 66.480,211.665 74.843,230.040 87.064 C 249.724 100.157,248.073 114.897,225.195 130.310 C 214.685 137.391,210.327 137.535,199.568 131.160 C 163.535 109.808,127.939 112.583,101.925 138.772 C 57.586 183.409,85.412 258.302,147.266 260.807 C 166.587 261.589,181.328 255.943,204.102 239.036 C 211.094 233.844,211.208 233.792,215.430 233.794 C 219.020 233.796,223.473 235.323,222.846 236.338 C 222.719 236.542,222.857 236.617,223.152 236.504 C 225.120 235.749,240.266 248.612,244.634 254.747 C 253.159 266.723,250.570 274.557,233.984 286.970 C 187.645 321.652,125.284 324.338,79.492 293.625 C 74.636 290.368,72.549 288.592,73.107 288.193 C 73.496 287.915,73.444 287.878,72.909 288.052 C 71.996 288.349,69.712 286.505,63.537 280.486 C 25.415 243.326,15.832 187.247,38.894 136.269 C 56.594 97.143,96.308 68.356,138.255 64.247 C 148.161 63.277,157.244 63.223,165.430 64.086 M37.585 113.917 C 37.539 114.476,37.670 114.785,37.893 114.647 C 38.356 114.361,38.407 113.405,37.973 113.137 C 37.804 113.033,37.630 113.383,37.585 113.917 M228.674 125.330 C 228.827 125.578,228.766 125.781,228.539 125.781 C 228.311 125.781,228.125 126.045,228.125 126.367 C 228.125 126.689,228.330 126.953,228.581 126.953 C 228.831 126.953,228.921 126.837,228.779 126.696 C 228.638 126.555,228.705 126.219,228.929 125.950 C 229.214 125.606,229.195 125.374,228.865 125.170 C 228.567 124.986,228.497 125.044,228.674 125.330 M296.094 153.248 L 296.094 166.262 294.640 166.955 C 293.660 167.422,293.140 167.506,293.042 167.212 C 292.284 164.938,282.922 164.159,278.332 165.988 C 275.260 167.212,272.277 170.163,271.204 173.038 L 270.416 175.151 269.627 173.368 C 267.303 168.113,261.485 164.844,254.457 164.844 L 251.172 164.844 251.172 154.668 C 251.172 143.808,251.249 143.307,253.186 141.554 C 254.605 140.269,254.104 140.298,275.684 140.265 L 296.094 140.234 296.094 153.248 M375.567 141.442 C 377.814 143.415,377.761 142.243,377.645 186.810 C 377.527 232.682,377.750 229.127,374.881 230.877 C 373.110 231.957,256.336 232.089,254.069 231.013 C 251.615 229.849,251.172 228.549,251.172 222.512 L 251.172 217.188 252.848 217.188 C 255.242 217.188,258.808 216.174,261.171 214.822 L 263.205 213.658 264.317 214.587 C 268.112 217.754,273.499 218.081,277.931 215.413 C 280.945 213.598,282.493 213.609,284.875 215.465 C 287.009 217.127,290.115 217.621,293.239 216.795 C 294.331 216.506,296.921 216.330,299.426 216.375 C 303.987 216.457,305.158 216.198,307.492 214.592 L 308.930 213.603 311.399 214.982 C 314.888 216.932,316.915 217.317,319.767 216.575 C 321.632 216.089,322.401 216.064,323.962 216.438 C 336.164 219.366,350.758 209.799,354.106 196.680 C 358.819 178.209,349.906 164.844,332.874 164.844 L 329.154 164.844 332.643 162.793 C 338.079 159.599,340.776 156.615,346.232 147.754 L 350.863 140.234 362.527 140.234 L 374.192 140.234 375.567 141.442 M304.587 162.777 C 304.512 164.236,304.449 163.145,304.449 160.352 C 304.448 157.559,304.510 156.365,304.586 157.699 C 304.662 159.032,304.662 161.318,304.587 162.777 M108.679 171.111 C 112.383 172.140,114.703 176.174,113.232 179.030 C 111.779 181.852,109.825 182.419,108.611 180.371 C 106.983 177.624,105.700 177.397,103.090 179.395 C 96.803 184.207,95.025 201.046,100.528 203.657 C 102.772 204.722,105.257 204.270,107.693 202.354 C 110.530 200.123,113.030 204.189,110.829 207.455 C 108.438 211.003,101.744 212.265,97.175 210.029 C 87.545 205.318,88.116 184.221,98.130 174.750 C 101.848 171.234,105.092 170.115,108.679 171.111 M131.401 171.256 C 145.270 175.430,140.871 209.470,126.239 211.197 C 118.567 212.103,114.256 206.036,114.260 194.336 C 114.264 178.915,122.044 168.440,131.401 171.256 M151.084 171.619 C 151.654 172.190,151.667 172.657,151.212 176.264 C 150.191 184.360,149.610 190.977,149.354 197.416 L 149.092 204.012 151.206 203.775 C 160.725 202.705,161.328 202.849,161.328 206.203 C 161.328 209.608,158.754 210.481,148.164 210.667 C 142.190 210.772,142.578 211.391,142.578 201.741 C 142.578 192.250,143.914 174.330,144.791 172.043 C 145.336 170.624,149.789 170.324,151.084 171.619 M173.307 171.538 C 174.006 172.118,173.934 174.081,172.891 182.813 C 172.208 188.541,171.484 198.165,171.484 201.538 L 171.484 203.906 173.535 203.889 C 174.663 203.880,176.902 203.720,178.509 203.534 C 182.376 203.086,182.813 203.339,182.813 206.025 C 182.813 209.872,181.287 210.473,171.077 210.655 C 164.131 210.778,164.682 211.774,164.961 199.613 C 165.250 186.969,166.576 172.887,167.593 171.662 C 168.445 170.635,172.122 170.555,173.307 171.538 M202.321 170.953 C 204.297 171.348,204.460 171.940,207.455 189.648 C 211.305 212.405,211.308 211.048,207.410 211.105 C 204.779 211.143,204.461 210.680,203.595 205.560 C 202.686 200.184,203.301 200.665,197.827 201.047 L 193.235 201.367 192.198 205.616 C 190.895 210.958,189.952 211.752,186.386 210.509 C 184.520 209.858,185.607 204.030,190.804 186.835 C 195.589 171.002,196.473 169.783,202.321 170.953 M230.273 171.833 C 236.637 174.652,237.922 181.618,232.993 186.577 L 230.999 188.583 232.484 189.238 C 240.070 192.585,238.090 204.710,229.273 208.896 C 225.150 210.854,216.121 211.763,214.267 210.406 C 213.363 209.746,213.362 202.886,214.264 188.867 C 215.246 173.604,215.304 173.047,215.986 172.205 C 217.353 170.517,226.749 170.272,230.273 171.833 M259.667 171.825 C 270.007 177.100,267.739 204.452,256.505 209.949 C 247.535 214.337,239.835 207.498,239.847 195.152 C 239.862 179.045,250.130 166.959,259.667 171.825 M286.328 171.209 C 287.765 171.935,288.118 172.989,289.233 179.883 C 289.789 183.320,291.140 191.370,292.236 197.772 C 294.548 211.273,294.585 210.938,290.808 210.938 C 288.169 210.938,288.083 210.807,287.091 205.254 C 286.632 202.687,286.229 200.578,286.195 200.568 C 286.161 200.559,283.913 200.720,281.199 200.926 L 276.266 201.302 275.395 205.145 C 274.397 209.543,273.540 210.938,271.834 210.938 C 270.234 210.938,267.969 209.928,267.969 209.215 C 267.969 205.955,277.018 175.856,278.956 172.669 C 280.026 170.909,284.129 170.096,286.328 171.209 M316.305 172.249 C 324.859 175.973,323.597 190.688,314.302 195.600 C 313.468 196.041,316.240 201.259,319.500 205.383 C 321.338 207.708,321.458 208.506,320.156 209.730 C 316.933 212.757,313.226 209.807,308.729 200.638 C 307.633 198.403,306.762 198.044,304.980 199.092 C 304.819 199.187,304.688 201.592,304.688 204.437 C 304.688 207.939,304.536 209.761,304.219 210.078 C 303.502 210.795,299.039 210.686,298.417 209.936 C 297.674 209.041,299.186 178.851,300.219 173.931 C 300.801 171.161,311.288 170.064,316.305 172.249 M338.401 171.676 C 355.146 176.038,352.817 204.343,335.266 209.764 C 332.082 210.747,327.136 211.162,325.624 210.572 L 324.490 210.130 324.726 202.038 C 325.041 191.242,326.080 175.160,326.579 173.348 C 327.193 171.117,333.066 170.287,338.401 171.676 M221.725 179.199 C 221.601 180.435,221.385 182.651,221.246 184.125 L 220.994 186.804 222.704 186.523 C 230.780 185.192,232.032 176.960,224.159 176.955 L 221.952 176.953 221.725 179.199 M332.479 183.301 C 332.011 189.322,331.260 201.409,331.253 203.027 C 331.246 205.012,335.512 203.564,338.156 200.684 C 345.024 193.204,343.968 179.376,336.407 177.781 C 332.710 177.000,333.001 176.590,332.479 183.301 M126.683 178.298 C 120.846 180.878,118.521 199.123,123.496 203.309 C 128.111 207.193,132.813 199.385,132.813 187.834 C 132.813 180.201,130.504 176.609,126.683 178.298 M252.268 178.688 C 246.940 182.374,244.891 198.858,249.223 203.189 C 253.939 207.906,259.384 199.923,259.426 188.232 C 259.456 179.899,256.402 175.827,252.268 178.688 M306.491 179.590 C 306.029 183.442,305.387 191.744,305.522 192.112 C 306.129 193.753,312.766 189.680,314.214 186.777 C 317.027 181.142,315.255 177.739,309.509 177.736 L 306.714 177.734 306.491 179.590 M198.323 182.691 C 197.754 184.584,196.836 187.803,196.282 189.844 C 195.727 191.885,195.183 193.862,195.072 194.238 C 194.845 195.004,196.628 195.155,200.170 194.670 L 202.011 194.417 201.760 192.423 C 201.200 187.980,199.904 180.241,199.639 179.761 C 199.470 179.456,198.940 180.636,198.323 182.691 M282.756 179.492 C 282.103 180.605,278.518 193.279,278.516 194.480 C 278.516 194.958,284.966 194.817,285.484 194.327 C 285.660 194.160,284.095 183.983,283.474 181.250 C 283.205 180.068,282.882 179.277,282.756 179.492 M220.996 193.213 C 220.457 193.374,220.313 193.853,220.313 195.476 C 220.313 196.609,220.196 199.173,220.054 201.174 L 219.796 204.812 222.239 204.557 C 231.882 203.549,233.880 193.636,224.537 193.156 C 222.966 193.076,221.372 193.101,220.996 193.213 M22.348 238.128 C 21.933 238.576,21.957 238.672,22.487 238.672 C 22.939 238.672,23.053 238.876,22.870 239.355 C 22.683 239.847,22.729 239.921,23.036 239.617 C 23.286 239.369,23.336 238.864,23.156 238.389 C 22.899 237.708,22.774 237.668,22.348 238.128 M240.884 279.518 C 241.147 280.204,241.203 280.207,241.729 279.574 C 242.045 279.193,241.966 279.056,241.409 279.014 C 240.916 278.977,240.741 279.145,240.884 279.518 M112.500 321.484 C 112.822 321.693,113.350 321.863,113.672 321.863 C 114.193 321.863,114.193 321.821,113.672 321.484 C 113.350 321.276,112.822 321.106,112.500 321.106 C 111.979 321.106,111.979 321.148,112.500 321.484 M152.734 326.712 C 152.734 326.795,153.174 326.946,153.711 327.049 C 154.248 327.151,154.688 327.084,154.688 326.899 C 154.688 326.714,154.248 326.563,153.711 326.563 C 153.174 326.563,152.734 326.630,152.734 326.712 " stroke="none" fill="#253c4b" fill-rule="evenodd"></path><path id="path2" d="M357.667 50.472 C 357.773 50.642,357.453 50.802,356.957 50.827 C 356.307 50.859,356.244 50.921,356.731 51.049 C 357.103 51.147,357.789 50.959,358.254 50.633 C 359.093 50.045,359.094 50.040,358.289 50.101 C 357.842 50.135,357.562 50.301,357.667 50.472 M362.109 50.391 L 359.180 50.641 361.989 50.711 C 363.534 50.750,364.906 50.605,365.039 50.391 C 365.172 50.176,365.226 50.032,365.160 50.070 C 365.093 50.109,363.721 50.253,362.109 50.391 M147.363 52.635 C 149.458 52.705,152.886 52.705,154.980 52.635 C 157.075 52.565,155.361 52.507,151.172 52.507 C 146.982 52.507,145.269 52.565,147.363 52.635 M139.166 53.015 C 139.759 53.104,140.638 53.102,141.119 53.009 C 141.599 52.917,141.113 52.843,140.039 52.846 C 138.965 52.849,138.572 52.925,139.166 53.015 M371.517 52.862 C 372.181 53.382,374.609 54.712,374.609 54.556 C 374.609 54.303,372.075 52.734,371.666 52.734 C 371.495 52.734,371.427 52.792,371.517 52.862 M135.645 53.394 C 136.021 53.493,136.636 53.493,137.012 53.394 C 137.388 53.296,137.080 53.216,136.328 53.216 C 135.576 53.216,135.269 53.296,135.645 53.394 M171.289 53.516 L 170.117 53.814 171.387 53.860 C 172.085 53.885,172.656 53.730,172.656 53.516 C 172.656 53.301,172.612 53.146,172.559 53.171 C 172.505 53.197,171.934 53.352,171.289 53.516 M348.066 54.277 C 347.754 54.474,347.314 54.531,347.089 54.404 C 346.864 54.276,346.810 54.315,346.969 54.491 C 347.129 54.667,347.041 55.080,346.774 55.410 C 346.507 55.739,346.860 55.590,347.559 55.079 C 348.257 54.568,348.828 54.095,348.828 54.028 C 348.828 53.840,348.680 53.888,348.066 54.277 M184.961 56.250 C 185.391 56.435,186.094 56.581,186.523 56.574 C 187.151 56.565,187.113 56.501,186.328 56.250 C 184.993 55.822,183.966 55.822,184.961 56.250 M378.685 58.212 C 381.810 61.624,381.886 61.696,380.958 60.352 C 380.513 59.707,379.612 58.669,378.956 58.046 C 378.299 57.422,377.872 56.719,378.006 56.483 C 378.140 56.248,378.106 56.185,377.931 56.344 C 377.755 56.504,377.331 56.419,376.989 56.157 C 376.647 55.895,377.410 56.820,378.685 58.212 M344.450 56.523 C 344.859 56.680,344.861 56.838,344.457 57.362 C 344.111 57.810,344.226 57.780,344.831 57.264 C 345.890 56.360,345.891 56.426,344.824 56.373 C 344.341 56.349,344.172 56.417,344.450 56.523 M189.648 57.422 C 190.078 57.607,190.693 57.758,191.016 57.758 C 191.385 57.758,191.313 57.633,190.820 57.422 C 190.391 57.237,189.775 57.086,189.453 57.086 C 189.084 57.086,189.156 57.210,189.648 57.422 M112.695 58.203 C 112.203 58.415,112.131 58.539,112.500 58.539 C 112.822 58.539,113.437 58.388,113.867 58.203 C 114.360 57.992,114.432 57.867,114.063 57.867 C 113.740 57.867,113.125 58.018,112.695 58.203 M106.738 60.168 C 105.430 60.694,105.675 60.961,107.031 60.488 C 107.676 60.264,108.203 60.009,108.203 59.923 C 108.203 59.691,107.728 59.771,106.738 60.168 M200.391 60.629 C 200.498 60.735,201.197 61.028,201.944 61.281 C 202.691 61.533,203.131 61.572,202.921 61.366 C 202.711 61.161,202.012 60.868,201.367 60.715 C 200.723 60.562,200.283 60.523,200.391 60.629 M150.500 63.569 C 151.527 63.650,153.109 63.649,154.016 63.567 C 154.922 63.485,154.082 63.419,152.148 63.420 C 150.215 63.421,149.473 63.488,150.500 63.569 M161.235 63.948 C 161.721 64.042,162.424 64.038,162.798 63.940 C 163.171 63.842,162.773 63.766,161.914 63.770 C 161.055 63.775,160.749 63.855,161.235 63.948 M138.379 64.332 C 138.755 64.430,139.370 64.430,139.746 64.332 C 140.122 64.234,139.814 64.153,139.063 64.153 C 138.311 64.153,138.003 64.234,138.379 64.332 M210.494 64.664 C 211.217 64.978,211.920 65.228,212.057 65.221 C 212.565 65.192,210.329 64.090,209.766 64.092 C 209.443 64.092,209.771 64.350,210.494 64.664 M91.309 66.822 C 90.073 67.460,89.063 68.069,89.063 68.176 C 89.063 68.350,93.711 66.138,94.108 65.774 C 94.619 65.306,93.260 65.815,91.309 66.822 M216.406 67.383 C 216.943 67.690,217.559 67.941,217.773 67.941 C 217.988 67.941,217.725 67.690,217.188 67.383 C 216.650 67.076,216.035 66.825,215.820 66.825 C 215.605 66.825,215.869 67.076,216.406 67.383 M221.517 69.679 C 221.916 70.040,225.000 71.480,225.000 71.305 C 225.000 71.083,222.052 69.531,221.630 69.531 C 221.478 69.531,221.427 69.598,221.517 69.679 M386.059 75.586 C 386.061 76.875,386.134 77.355,386.221 76.653 C 386.308 75.951,386.306 74.896,386.217 74.309 C 386.127 73.722,386.056 74.297,386.059 75.586 M231.445 75.202 C 231.875 75.552,232.578 76.011,233.008 76.222 C 233.725 76.574,233.734 76.561,233.112 76.057 C 232.739 75.755,232.475 75.438,232.526 75.352 C 232.576 75.266,232.550 75.233,232.468 75.279 C 232.386 75.325,231.947 75.184,231.492 74.965 C 230.673 74.570,230.672 74.573,231.445 75.202 M75.098 76.601 C 74.185 77.248,73.438 77.864,73.438 77.970 C 73.438 78.076,74.229 77.618,75.195 76.953 C 76.162 76.288,76.953 75.664,76.953 75.567 C 76.953 75.298,76.879 75.340,75.098 76.601 M71.094 78.711 C 70.826 79.033,70.738 79.297,70.898 79.297 C 71.058 79.297,70.948 79.604,70.653 79.980 C 70.166 80.602,70.180 80.615,70.810 80.120 C 71.191 79.821,71.413 79.486,71.302 79.375 C 71.191 79.264,71.296 78.938,71.536 78.649 C 71.775 78.361,71.883 78.125,71.775 78.125 C 71.668 78.125,71.361 78.389,71.094 78.711 M236.719 78.600 C 237.179 79.118,240.657 81.641,240.911 81.641 C 241.064 81.641,240.796 81.365,240.315 81.028 C 239.827 80.686,239.557 80.211,239.705 79.954 C 239.850 79.700,239.826 79.622,239.651 79.780 C 239.476 79.938,238.701 79.688,237.928 79.224 C 237.156 78.760,236.611 78.479,236.719 78.600 M242.079 82.841 C 242.556 83.339,243.045 83.647,243.165 83.527 C 243.285 83.407,242.895 83.000,242.297 82.623 L 241.211 81.937 242.079 82.841 M222.779 82.681 C 222.929 82.932,222.831 83.214,222.561 83.309 C 222.291 83.403,222.561 83.484,223.161 83.488 C 223.761 83.493,224.200 83.468,224.137 83.434 C 224.075 83.400,223.682 83.115,223.265 82.800 C 222.848 82.484,222.629 82.431,222.779 82.681 M64.258 84.973 C 63.613 85.501,63.275 85.934,63.506 85.936 C 63.737 85.937,64.339 85.498,64.844 84.961 C 66.001 83.729,65.770 83.734,64.258 84.973 M243.750 84.059 C 243.750 84.152,244.248 84.706,244.857 85.289 C 245.611 86.012,245.964 86.167,245.964 85.775 C 245.964 85.458,245.773 85.234,245.540 85.276 C 245.308 85.317,245.176 85.088,245.247 84.766 C 245.319 84.443,245.247 84.310,245.088 84.469 C 244.929 84.629,244.563 84.563,244.274 84.324 C 243.986 84.084,243.750 83.965,243.750 84.059 M60.352 88.553 C 59.277 89.545,58.750 90.168,59.180 89.937 C 59.923 89.537,62.845 86.702,62.479 86.734 C 62.383 86.743,61.426 87.561,60.352 88.553 M368.357 89.454 C 368.067 89.634,368.355 89.733,369.063 89.697 C 369.721 89.664,370.344 89.552,370.448 89.447 C 370.769 89.126,368.878 89.132,368.357 89.454 M237.430 93.092 C 238.121 93.804,238.595 94.478,238.483 94.589 C 238.372 94.701,238.552 94.792,238.883 94.792 C 239.275 94.792,238.975 94.270,238.022 93.294 C 237.218 92.471,236.473 91.797,236.368 91.797 C 236.262 91.797,236.740 92.380,237.430 93.092 M52.760 96.192 C 51.807 97.319,51.516 97.803,52.114 97.266 C 53.122 96.361,54.900 94.140,54.616 94.141 C 54.548 94.141,53.713 95.064,52.760 96.192 M378.274 95.410 C 376.929 97.691,376.842 97.886,377.526 97.070 C 378.320 96.125,379.004 94.922,378.748 94.922 C 378.645 94.922,378.432 95.142,378.274 95.410 M240.885 97.526 C 240.529 97.882,240.555 99.219,240.918 99.219 C 241.079 99.219,241.211 98.779,241.211 98.242 C 241.211 97.705,241.196 97.266,241.178 97.266 C 241.160 97.266,241.029 97.383,240.885 97.526 M375.638 99.707 L 374.935 100.977 375.740 100.000 C 376.454 99.134,376.771 98.438,376.451 98.438 C 376.390 98.438,376.024 99.009,375.638 99.707 M59.965 104.293 C 59.349 104.935,58.921 105.523,59.013 105.599 C 59.105 105.675,59.680 105.150,60.292 104.431 C 61.674 102.809,61.469 102.722,59.965 104.293 M254.388 105.469 C 254.388 106.221,254.468 106.528,254.566 106.152 C 254.664 105.776,254.664 105.161,254.566 104.785 C 254.468 104.409,254.388 104.717,254.388 105.469 M39.148 113.379 C 37.722 115.484,37.414 116.016,37.617 116.016 C 37.707 116.016,38.422 115.049,39.206 113.867 C 39.991 112.686,40.552 111.719,40.452 111.719 C 40.353 111.719,39.766 112.466,39.148 113.379 M306.250 116.950 C 306.250 117.250,306.518 117.597,306.845 117.723 C 307.330 117.909,307.364 117.809,307.027 117.179 C 306.542 116.273,306.250 116.187,306.250 116.950 M147.954 117.073 C 148.440 117.167,149.143 117.163,149.516 117.065 C 149.890 116.967,149.492 116.891,148.633 116.895 C 147.773 116.900,147.468 116.980,147.954 117.073 M157.129 117.066 C 157.505 117.164,158.120 117.164,158.496 117.066 C 158.872 116.968,158.564 116.888,157.813 116.888 C 157.061 116.888,156.753 116.968,157.129 117.066 M116.406 125.781 C 116.406 126.021,116.230 126.109,116.016 125.977 C 115.801 125.844,115.625 125.921,115.625 126.149 C 115.625 126.646,116.023 126.670,116.741 126.215 C 117.110 125.981,117.140 125.798,116.839 125.612 C 116.601 125.465,116.406 125.541,116.406 125.781 M289.063 128.536 C 288.348 128.726,288.584 128.801,289.941 128.818 C 290.962 128.831,291.797 128.788,291.797 128.724 C 291.797 128.431,289.942 128.303,289.063 128.536 M376.860 129.183 C 377.346 129.276,378.049 129.272,378.423 129.175 C 378.796 129.077,378.398 129.000,377.539 129.005 C 376.680 129.009,376.374 129.089,376.860 129.183 M384.171 131.732 C 384.811 132.219,385.427 132.620,385.539 132.623 C 385.651 132.626,386.006 132.792,386.328 132.991 C 386.833 133.303,386.840 133.262,386.382 132.696 C 386.089 132.335,385.693 132.136,385.503 132.254 C 385.312 132.372,385.156 132.310,385.156 132.117 C 385.156 131.924,384.673 131.559,384.082 131.306 L 383.008 130.847 384.171 131.732 M104.492 135.156 C 104.359 135.371,104.380 135.547,104.537 135.547 C 104.695 135.547,104.398 136.030,103.877 136.621 L 102.930 137.695 103.939 136.809 C 104.494 136.322,104.948 135.663,104.948 135.345 C 104.948 134.667,104.826 134.616,104.492 135.156 M210.254 135.827 C 210.845 135.916,211.812 135.916,212.402 135.827 C 212.993 135.737,212.510 135.664,211.328 135.664 C 210.146 135.664,209.663 135.737,210.254 135.827 M388.080 185.742 C 388.080 211.953,388.126 222.618,388.184 209.442 C 388.241 196.267,388.241 174.821,388.184 161.786 C 388.126 148.751,388.080 159.531,388.080 185.742 M255.372 140.784 C 255.493 140.980,255.196 141.035,254.710 140.908 C 254.225 140.782,253.911 140.760,254.012 140.860 C 254.112 140.961,253.690 141.583,253.074 142.243 C 252.457 142.902,251.953 143.697,251.953 144.010 C 251.953 144.322,251.821 144.496,251.660 144.396 C 251.499 144.296,251.417 148.680,251.478 154.138 L 251.588 164.063 253.821 164.128 L 256.055 164.194 253.906 164.472 C 252.350 164.673,252.710 164.704,255.209 164.585 C 257.623 164.470,258.582 164.547,258.399 164.843 C 258.222 165.129,258.482 165.179,259.205 164.998 C 259.911 164.820,260.187 164.869,260.019 165.141 C 259.857 165.402,260.072 165.472,260.607 165.332 C 261.235 165.168,261.370 165.242,261.134 165.624 C 260.923 165.965,260.969 166.042,261.271 165.855 C 261.910 165.461,263.348 165.983,263.031 166.495 C 262.876 166.746,262.952 166.805,263.218 166.641 C 264.391 165.916,270.242 171.649,269.719 173.011 C 269.593 173.340,269.615 173.484,269.768 173.331 C 269.920 173.179,270.267 173.238,270.539 173.463 C 270.919 173.779,270.980 173.674,270.806 173.008 C 270.652 172.417,270.722 172.231,271.028 172.420 C 271.327 172.605,271.390 172.475,271.218 172.027 C 271.056 171.605,271.114 171.451,271.374 171.611 C 271.609 171.757,271.764 171.574,271.733 171.187 C 271.704 170.811,271.911 170.556,272.197 170.615 C 272.482 170.674,272.621 170.571,272.506 170.386 C 272.190 169.874,273.431 168.309,273.915 168.609 C 274.162 168.761,274.228 168.690,274.073 168.439 C 273.762 167.936,275.140 167.081,275.597 167.494 C 275.767 167.648,275.800 167.586,275.670 167.357 C 275.358 166.809,277.607 165.492,278.361 165.782 C 278.736 165.926,278.847 165.846,278.670 165.559 C 278.482 165.254,278.663 165.182,279.236 165.332 C 279.771 165.472,279.986 165.402,279.825 165.141 C 279.657 164.869,279.932 164.820,280.639 164.998 C 281.338 165.173,281.619 165.125,281.455 164.859 C 281.287 164.588,282.519 164.453,285.156 164.453 C 288.044 164.453,289.034 164.575,288.830 164.904 C 288.653 165.191,288.723 165.249,289.024 165.063 C 289.713 164.637,291.495 165.165,291.167 165.697 C 290.996 165.973,291.071 166.027,291.371 165.842 C 291.969 165.472,293.431 166.746,293.088 167.337 C 292.948 167.577,293.197 167.456,293.639 167.069 C 294.082 166.681,294.771 166.340,295.171 166.310 C 295.867 166.257,295.894 165.700,295.790 153.447 L 295.683 140.639 275.418 140.534 C 263.354 140.472,255.241 140.573,255.372 140.784 M350.581 140.566 C 350.506 140.640,350.532 140.930,350.639 141.210 C 350.747 141.489,350.620 141.851,350.357 142.013 C 350.031 142.214,349.980 142.145,350.195 141.797 C 350.406 141.456,350.359 141.380,350.054 141.568 C 349.802 141.724,349.698 142.014,349.821 142.214 C 350.118 142.695,349.036 144.219,348.663 143.845 C 348.503 143.685,348.408 143.730,348.451 143.945 C 348.627 144.817,348.412 145.343,347.987 145.080 C 347.707 144.907,347.642 144.973,347.814 145.251 C 348.142 145.783,347.129 147.389,346.722 146.982 C 346.568 146.829,346.552 146.988,346.686 147.336 C 346.819 147.683,346.713 148.101,346.451 148.263 C 346.125 148.464,346.074 148.395,346.289 148.047 C 346.500 147.706,346.453 147.630,346.148 147.818 C 345.896 147.974,345.791 148.264,345.915 148.464 C 346.220 148.958,345.128 150.459,344.727 150.095 C 344.550 149.935,344.532 150.024,344.687 150.292 C 345.017 150.867,344.009 152.473,343.585 152.048 C 343.425 151.889,343.330 151.934,343.373 152.148 C 343.542 152.985,343.341 153.550,342.959 153.314 C 342.739 153.178,342.584 153.212,342.615 153.389 C 342.759 154.221,342.537 154.708,342.127 154.455 C 341.867 154.294,341.781 154.347,341.925 154.578 C 342.459 155.443,337.532 160.854,336.686 160.331 C 336.478 160.203,336.357 160.331,336.416 160.615 C 336.475 160.900,336.223 161.110,335.855 161.081 C 335.488 161.053,335.224 161.228,335.269 161.472 C 335.315 161.715,335.032 161.888,334.642 161.855 C 334.252 161.823,334.031 161.895,334.151 162.016 C 334.517 162.382,332.844 163.347,332.361 163.048 C 332.095 162.884,332.016 162.941,332.169 163.188 C 332.311 163.417,332.206 163.694,331.936 163.803 C 331.656 163.916,331.780 164.036,332.227 164.083 C 332.710 164.134,332.487 164.285,331.641 164.480 C 330.796 164.674,331.767 164.722,334.180 164.605 C 336.968 164.469,337.918 164.532,337.500 164.824 C 337.066 165.127,337.259 165.167,338.244 164.978 C 339.226 164.789,339.499 164.844,339.286 165.189 C 339.075 165.530,339.286 165.584,340.065 165.388 C 340.771 165.211,341.046 165.260,340.878 165.532 C 340.717 165.793,340.932 165.862,341.467 165.722 C 342.095 165.558,342.229 165.633,341.993 166.014 C 341.782 166.355,341.828 166.433,342.131 166.246 C 342.724 165.879,344.218 166.356,343.931 166.821 C 343.809 167.018,344.010 167.063,344.380 166.921 C 344.871 166.733,344.964 166.803,344.730 167.181 C 344.518 167.525,344.561 167.606,344.861 167.421 C 345.392 167.092,346.998 168.106,346.591 168.513 C 346.438 168.666,346.582 168.688,346.912 168.562 C 347.264 168.426,347.821 168.696,348.267 169.218 C 349.018 170.098,349.018 170.100,348.242 169.525 C 347.520 168.989,347.501 168.997,347.993 169.625 C 348.286 169.998,348.670 170.215,348.845 170.107 C 349.187 169.896,349.789 170.642,349.799 171.289 C 349.802 171.504,350.031 171.680,350.307 171.680 C 350.948 171.680,351.583 172.688,351.279 173.224 C 351.151 173.449,351.191 173.502,351.367 173.342 C 351.811 172.940,352.844 174.506,352.501 175.061 C 352.343 175.316,352.393 175.406,352.617 175.268 C 353.106 174.966,354.013 176.856,353.656 177.433 C 353.489 177.704,353.581 177.740,353.912 177.535 C 354.291 177.301,354.361 177.395,354.172 177.886 C 354.002 178.331,354.064 178.464,354.358 178.282 C 354.670 178.089,354.723 178.343,354.537 179.141 C 354.331 180.025,354.369 180.145,354.709 179.688 C 355.046 179.233,355.093 179.408,354.916 180.469 C 354.744 181.506,354.790 181.695,355.109 181.250 C 355.421 180.815,355.478 181.217,355.330 182.813 C 355.197 184.239,355.239 184.633,355.456 183.984 C 355.668 183.348,355.777 184.505,355.769 187.305 C 355.760 190.354,355.666 191.205,355.444 190.234 C 355.226 189.277,355.189 189.629,355.323 191.406 C 355.459 193.218,355.399 193.777,355.112 193.359 C 354.818 192.932,354.768 193.196,354.926 194.336 C 355.090 195.517,355.040 195.755,354.720 195.313 C 354.400 194.869,354.360 195.049,354.554 196.057 C 354.754 197.097,354.698 197.318,354.297 197.071 C 353.950 196.856,353.879 196.906,354.078 197.227 C 354.504 197.916,353.976 199.699,353.444 199.370 C 353.174 199.203,353.113 199.274,353.285 199.553 C 353.652 200.146,353.175 201.640,352.711 201.353 C 352.513 201.231,352.468 201.432,352.610 201.802 C 352.783 202.253,352.720 202.381,352.415 202.192 C 352.110 202.004,352.046 202.131,352.219 202.583 C 352.393 203.035,352.329 203.162,352.024 202.973 C 351.719 202.785,351.655 202.912,351.829 203.364 C 351.991 203.786,351.933 203.940,351.673 203.779 C 351.438 203.634,351.283 203.817,351.314 204.203 C 351.343 204.577,351.168 204.846,350.925 204.800 C 350.682 204.755,350.506 205.019,350.534 205.386 C 350.563 205.754,350.353 206.006,350.069 205.947 C 349.780 205.888,349.668 206.029,349.815 206.266 C 350.145 206.801,345.117 211.885,344.584 211.556 C 344.370 211.424,344.067 211.521,343.912 211.773 C 343.724 212.078,343.800 212.125,344.141 211.914 C 344.489 211.699,344.558 211.750,344.357 212.076 C 344.194 212.338,343.821 212.461,343.528 212.348 C 343.234 212.236,342.873 212.339,342.726 212.577 C 342.552 212.858,342.638 212.900,342.969 212.695 C 343.317 212.480,343.386 212.531,343.185 212.857 C 343.023 213.120,342.635 213.237,342.323 213.117 C 342.011 212.997,341.852 213.055,341.969 213.244 C 342.254 213.706,338.751 215.329,338.202 214.990 C 337.923 214.817,337.882 214.904,338.087 215.236 C 338.323 215.617,338.188 215.692,337.561 215.528 C 337.020 215.386,336.810 215.457,336.975 215.723 C 337.139 215.989,336.929 216.060,336.389 215.918 C 335.854 215.778,335.639 215.848,335.800 216.109 C 335.968 216.382,335.673 216.431,334.922 216.256 C 334.038 216.050,333.918 216.087,334.375 216.427 C 334.826 216.762,334.602 216.812,333.398 216.645 C 332.349 216.500,332.028 216.548,332.421 216.793 C 332.801 217.030,331.385 217.147,328.368 217.128 C 325.419 217.109,323.926 216.968,324.268 216.741 C 324.618 216.507,324.411 216.474,323.672 216.647 C 323.033 216.796,322.634 216.758,322.756 216.561 C 322.875 216.368,322.550 216.211,322.033 216.211 C 321.516 216.211,321.094 216.362,321.094 216.546 C 321.094 216.730,320.821 216.776,320.488 216.648 C 320.095 216.497,319.979 216.573,320.158 216.862 C 320.355 217.182,320.054 217.236,319.104 217.054 C 318.167 216.874,317.947 216.912,318.359 217.182 C 318.802 217.472,318.611 217.566,317.578 217.567 C 315.690 217.568,314.413 217.178,314.713 216.692 C 314.860 216.455,314.775 216.403,314.510 216.566 C 313.871 216.961,312.434 216.439,312.750 215.927 C 312.906 215.675,312.829 215.617,312.561 215.783 C 312.006 216.126,310.440 215.092,310.842 214.648 C 311.002 214.472,310.913 214.454,310.645 214.609 C 310.376 214.763,309.940 214.756,309.675 214.592 C 308.954 214.147,307.811 214.139,307.540 214.578 C 307.406 214.794,307.499 214.842,307.752 214.686 C 308.000 214.532,308.203 214.491,308.203 214.594 C 308.203 215.061,305.384 216.457,304.853 216.253 C 304.525 216.128,304.336 216.154,304.434 216.313 C 304.532 216.472,302.274 216.602,299.415 216.602 C 296.453 216.602,294.310 216.752,294.432 216.952 C 294.554 217.149,294.154 217.186,293.515 217.037 C 292.686 216.844,292.540 216.879,292.969 217.170 C 293.388 217.453,292.643 217.568,290.347 217.572 C 287.530 217.577,287.036 217.471,286.286 216.699 C 285.816 216.216,285.577 216.075,285.755 216.385 C 285.936 216.701,285.530 216.560,284.836 216.066 C 284.153 215.579,283.594 215.084,283.594 214.965 C 283.594 214.846,283.901 214.989,284.277 215.284 C 284.888 215.763,284.907 215.751,284.458 215.177 C 284.154 214.788,283.614 214.608,283.091 214.723 C 282.390 214.876,282.338 214.831,282.813 214.488 C 283.518 213.977,281.094 214.343,279.972 214.917 C 279.592 215.111,279.121 215.172,278.925 215.051 C 278.730 214.930,278.442 215.037,278.287 215.288 C 278.100 215.592,278.189 215.650,278.553 215.461 C 278.855 215.305,278.755 215.457,278.332 215.800 C 277.908 216.143,277.328 216.334,277.042 216.224 C 276.756 216.114,276.621 216.186,276.743 216.383 C 277.041 216.865,275.682 217.264,274.762 216.964 C 274.154 216.766,274.127 216.798,274.609 217.145 C 275.047 217.460,274.375 217.568,271.950 217.572 C 269.675 217.576,268.784 217.449,268.971 217.146 C 269.148 216.859,268.977 216.796,268.463 216.959 C 267.542 217.252,266.321 216.860,266.624 216.370 C 266.741 216.180,266.587 216.121,266.280 216.239 C 265.973 216.356,265.296 216.047,264.776 215.550 C 264.166 214.970,264.114 214.852,264.629 215.221 C 265.398 215.772,265.403 215.765,264.763 215.057 C 264.093 214.316,261.969 213.911,262.399 214.606 C 262.530 214.818,262.341 214.866,261.958 214.719 C 261.560 214.567,261.384 214.619,261.526 214.848 C 261.739 215.193,261.219 215.389,260.759 215.137 C 260.661 215.083,260.335 215.375,260.034 215.786 C 259.688 216.260,259.246 216.440,258.825 216.279 C 258.383 216.109,258.255 216.174,258.439 216.472 C 258.627 216.777,258.446 216.849,257.873 216.700 C 257.409 216.578,257.123 216.630,257.237 216.814 C 257.521 217.273,255.045 217.694,253.134 217.512 L 251.563 217.362 251.563 222.126 C 251.563 224.746,251.458 227.211,251.330 227.605 C 251.133 228.214,251.166 228.234,251.560 227.734 C 251.944 227.246,251.989 227.295,251.828 228.028 C 251.722 228.512,251.795 228.809,251.990 228.688 C 252.184 228.568,252.366 228.656,252.393 228.883 C 252.419 229.111,252.463 229.517,252.490 229.785 C 252.517 230.054,252.759 230.295,253.027 230.322 C 253.296 230.349,253.702 230.393,253.929 230.420 C 254.157 230.447,254.244 230.628,254.124 230.823 C 254.004 231.018,254.284 231.078,254.748 230.957 C 255.212 230.835,255.492 230.896,255.372 231.091 C 255.241 231.302,265.516 231.406,280.799 231.348 C 380.246 230.970,375.533 231.014,375.187 230.456 C 374.939 230.055,376.381 228.855,376.713 229.186 C 376.868 229.342,376.867 229.137,376.712 228.733 C 376.551 228.313,376.584 228.092,376.789 228.219 C 377.007 228.354,377.148 211.708,377.148 185.938 C 377.148 160.167,377.007 143.521,376.789 143.656 C 376.584 143.783,376.551 143.562,376.712 143.142 C 376.867 142.738,376.883 142.518,376.746 142.655 C 376.471 142.930,374.755 141.361,374.889 140.958 C 374.935 140.819,374.584 140.790,374.108 140.894 C 373.583 141.009,373.420 140.955,373.694 140.757 C 373.942 140.577,368.874 140.430,362.431 140.430 C 355.989 140.430,350.656 140.491,350.581 140.566 M377.532 185.742 C 377.532 208.301,377.579 217.472,377.637 206.122 C 377.694 194.773,377.694 176.316,377.637 165.107 C 377.579 153.898,377.532 163.184,377.532 185.742 M304.449 160.352 C 304.449 163.145,304.512 164.236,304.587 162.777 C 304.662 161.318,304.662 159.032,304.586 157.699 C 304.510 156.365,304.448 157.559,304.449 160.352 M338.849 158.301 L 337.305 159.961 338.965 158.417 C 339.878 157.568,340.625 156.820,340.625 156.757 C 340.625 156.461,340.285 156.757,338.849 158.301 M19.299 157.551 C 19.427 157.945,19.546 158.560,19.565 158.919 C 19.583 159.277,19.753 159.052,19.943 158.418 C 20.132 157.784,20.205 157.184,20.104 157.083 C 20.004 156.983,19.919 157.150,19.916 157.454 C 19.911 157.912,19.837 157.907,19.488 157.422 C 19.138 156.935,19.106 156.956,19.299 157.551 M80.177 187.305 C 80.181 188.164,80.261 188.470,80.354 187.984 C 80.448 187.498,80.444 186.795,80.347 186.421 C 80.249 186.048,80.172 186.445,80.177 187.305 M132.911 187.695 C 132.915 188.555,132.995 188.860,133.089 188.374 C 133.182 187.888,133.179 187.185,133.081 186.812 C 132.983 186.438,132.907 186.836,132.911 187.695 M15.779 192.773 C 15.780 195.781,15.841 196.960,15.915 195.393 C 15.990 193.826,15.989 191.365,15.914 189.924 C 15.839 188.484,15.779 189.766,15.779 192.773 M26.653 200.391 C 26.653 201.143,26.734 201.450,26.832 201.074 C 26.930 200.698,26.930 200.083,26.832 199.707 C 26.734 199.331,26.653 199.639,26.653 200.391 M16.106 202.734 C 16.106 203.486,16.187 203.794,16.285 203.418 C 16.383 203.042,16.383 202.427,16.285 202.051 C 16.187 201.675,16.106 201.982,16.106 202.734 M347.052 209.082 L 345.508 210.742 347.168 209.198 C 348.712 207.762,349.008 207.422,348.712 207.422 C 348.648 207.422,347.901 208.169,347.052 209.082 M145.801 210.827 C 146.392 210.916,147.358 210.916,147.949 210.827 C 148.540 210.737,148.057 210.664,146.875 210.664 C 145.693 210.664,145.210 210.737,145.801 210.827 M17.212 213.672 C 17.183 214.450,17.099 214.529,16.797 214.063 C 16.569 213.710,16.416 213.662,16.412 213.942 C 16.409 214.198,16.583 214.516,16.800 214.650 C 17.271 214.941,17.735 213.905,17.450 213.196 C 17.340 212.921,17.233 213.135,17.212 213.672 M302.051 217.073 C 301.567 217.166,300.776 217.166,300.293 217.073 C 299.810 216.979,300.205 216.903,301.172 216.903 C 302.139 216.903,302.534 216.979,302.051 217.073 M18.365 220.150 C 18.369 220.562,18.550 221.162,18.768 221.484 C 19.057 221.912,19.094 221.754,18.902 220.898 C 18.581 219.462,18.357 219.150,18.365 220.150 M19.955 226.433 C 19.937 226.684,19.804 227.196,19.660 227.571 C 19.482 228.036,19.544 228.163,19.855 227.971 C 20.109 227.814,20.313 227.901,20.313 228.167 C 20.313 228.430,20.395 228.564,20.495 228.463 C 20.595 228.363,20.522 227.763,20.333 227.129 C 20.144 226.495,19.974 226.182,19.955 226.433 M213.574 233.869 C 214.058 233.963,214.849 233.963,215.332 233.869 C 215.815 233.776,215.420 233.700,214.453 233.700 C 213.486 233.700,213.091 233.776,213.574 233.869 M384.546 239.551 L 383.398 240.820 384.668 239.673 C 385.366 239.042,385.938 238.471,385.938 238.403 C 385.938 238.102,385.615 238.367,384.546 239.551 M23.489 239.332 C 23.060 239.796,23.052 239.998,23.449 240.364 C 23.828 240.715,23.879 240.707,23.667 240.332 C 23.515 240.063,23.578 239.844,23.805 239.844 C 24.033 239.844,24.219 240.049,24.219 240.299 C 24.219 240.550,24.310 240.664,24.422 240.552 C 24.534 240.439,24.491 239.990,24.325 239.552 C 24.061 238.856,23.956 238.828,23.489 239.332 M231.702 242.532 C 231.320 242.774,231.453 242.916,232.194 243.058 C 233.018 243.216,233.127 243.152,232.768 242.720 C 232.251 242.097,232.358 242.116,231.702 242.532 M372.559 242.854 C 373.042 242.947,373.833 242.947,374.316 242.854 C 374.800 242.761,374.404 242.685,373.438 242.685 C 372.471 242.685,372.075 242.761,372.559 242.854 M376.666 242.858 C 377.259 242.948,378.138 242.946,378.619 242.853 C 379.099 242.760,378.613 242.687,377.539 242.690 C 376.465 242.693,376.072 242.769,376.666 242.858 M26.399 245.508 C 26.551 245.938,26.688 246.594,26.703 246.967 C 26.718 247.355,26.876 247.499,27.072 247.303 C 27.267 247.108,27.137 246.483,26.768 245.844 C 26.413 245.229,26.247 245.078,26.399 245.508 M237.636 247.200 C 237.992 247.593,238.151 248.047,237.989 248.209 C 237.828 248.370,237.959 248.444,238.281 248.372 C 238.604 248.301,238.823 248.462,238.770 248.730 C 238.716 248.999,238.892 249.175,239.160 249.121 C 239.429 249.067,239.590 249.287,239.518 249.609 C 239.447 249.932,239.523 250.060,239.688 249.895 C 239.853 249.731,240.614 250.168,241.381 250.867 C 242.147 251.566,241.548 250.866,240.050 249.311 C 238.551 247.756,237.250 246.484,237.157 246.484 C 237.064 246.484,237.280 246.806,237.636 247.200 M28.704 250.733 C 28.926 251.452,28.871 251.592,28.460 251.353 C 28.168 251.185,28.067 251.197,28.234 251.381 C 28.947 252.164,29.692 251.910,29.239 251.039 C 28.596 249.801,28.379 249.677,28.704 250.733 M259.223 261.523 C 259.544 262.960,259.768 263.272,259.760 262.272 C 259.756 261.860,259.575 261.260,259.357 260.938 C 259.068 260.510,259.031 260.668,259.223 261.523 M259.908 266.992 C 259.909 269.141,259.975 269.970,260.054 268.835 C 260.133 267.699,260.132 265.942,260.052 264.928 C 259.972 263.915,259.907 264.844,259.908 266.992 M259.420 271.550 C 259.395 271.908,259.274 272.524,259.150 272.917 C 258.937 273.595,258.949 273.597,259.372 272.937 C 259.617 272.554,259.739 271.939,259.642 271.570 C 259.483 270.965,259.461 270.963,259.420 271.550 M45.078 277.441 C 44.923 277.710,44.944 277.796,45.123 277.633 C 45.303 277.470,45.902 277.734,46.455 278.219 L 47.461 279.102 46.514 278.027 C 45.421 276.788,45.447 276.799,45.078 277.441 M241.984 280.087 C 241.444 280.684,241.194 280.757,240.964 280.385 C 240.768 280.068,240.683 280.202,240.725 280.761 C 240.783 281.525,242.969 280.218,242.969 279.419 C 242.969 279.133,242.654 279.346,241.984 280.087 M255.304 280.957 C 254.726 281.870,254.593 282.229,255.008 281.755 C 255.423 281.281,255.872 280.973,256.006 281.071 C 256.140 281.170,256.168 281.139,256.068 281.003 C 255.969 280.868,256.063 280.428,256.277 280.027 C 257.002 278.672,256.362 279.284,255.304 280.957 M65.625 282.544 C 65.625 282.611,66.196 283.183,66.895 283.814 L 68.164 284.961 67.017 283.691 C 65.947 282.508,65.625 282.242,65.625 282.544 M51.953 284.570 C 52.682 285.322,53.366 285.938,53.474 285.938 C 53.581 285.938,53.073 285.322,52.344 284.570 C 51.615 283.818,50.931 283.203,50.823 283.203 C 50.716 283.203,51.224 283.818,51.953 284.570 M56.250 289.063 C 56.787 289.483,56.996 289.830,56.715 289.835 C 56.418 289.840,56.325 290.040,56.494 290.313 C 56.715 290.670,56.824 290.662,56.952 290.277 C 57.062 289.946,57.676 290.288,58.736 291.271 C 59.641 292.110,59.412 291.782,58.216 290.525 C 57.042 289.291,55.900 288.285,55.677 288.290 C 55.455 288.295,55.713 288.642,56.250 289.063 M60.547 292.700 C 60.547 292.768,61.118 293.339,61.816 293.970 L 63.086 295.117 61.939 293.848 C 60.869 292.664,60.547 292.399,60.547 292.700 M65.755 297.469 C 65.755 297.763,65.858 297.985,65.983 297.963 C 66.551 297.863,67.609 298.568,67.236 298.798 C 66.986 298.953,67.099 299.220,67.529 299.488 C 68.798 300.280,68.340 298.906,66.992 297.878 C 66.145 297.232,65.755 297.103,65.755 297.469 M236.133 298.667 L 234.961 299.674 236.230 298.834 C 236.929 298.372,237.500 297.918,237.500 297.825 C 237.500 297.533,237.335 297.634,236.133 298.667 M221.777 307.255 C 220.317 308.047,220.406 308.377,221.875 307.617 C 222.520 307.284,223.047 306.928,223.047 306.826 C 223.047 306.575,223.005 306.589,221.777 307.255 M208.203 313.867 C 207.666 314.174,207.402 314.425,207.617 314.425 C 207.832 314.425,208.447 314.174,208.984 313.867 C 209.521 313.560,209.785 313.309,209.570 313.309 C 209.355 313.309,208.740 313.560,208.203 313.867 M140.332 314.722 C 140.708 314.821,141.323 314.821,141.699 314.722 C 142.075 314.624,141.768 314.544,141.016 314.544 C 140.264 314.544,139.956 314.624,140.332 314.722 M148.730 315.134 C 150.288 315.208,152.837 315.208,154.395 315.134 C 155.952 315.060,154.678 314.999,151.563 314.999 C 148.447 314.999,147.173 315.060,148.730 315.134 M203.320 315.834 C 202.339 316.307,202.307 316.360,203.125 316.163 C 203.662 316.034,204.269 315.772,204.473 315.581 C 204.979 315.108,204.701 315.169,203.320 315.834 M104.492 318.178 C 105.137 318.473,105.928 318.709,106.250 318.703 C 106.572 318.696,106.221 318.454,105.469 318.164 C 103.685 317.477,102.984 317.487,104.492 318.178 M196.191 318.372 C 194.883 318.897,195.128 319.164,196.484 318.691 C 197.129 318.467,197.656 318.212,197.656 318.126 C 197.656 317.894,197.181 317.974,196.191 318.372 M111.233 320.154 C 111.503 320.278,111.651 320.496,111.563 320.639 C 111.475 320.782,111.817 320.898,112.322 320.898 C 113.419 320.898,113.087 320.495,111.719 320.165 C 111.182 320.035,110.963 320.030,111.233 320.154 M187.109 321.057 C 186.209 321.312,186.194 321.350,186.926 321.545 C 187.362 321.661,187.940 321.520,188.211 321.230 C 188.744 320.659,188.598 320.636,187.109 321.057 M128.516 324.200 C 129.492 324.531,131.916 324.739,131.608 324.464 C 131.519 324.384,130.566 324.217,129.492 324.093 C 128.175 323.941,127.857 323.976,128.516 324.200 M132.520 324.879 C 132.896 324.977,133.511 324.977,133.887 324.879 C 134.263 324.780,133.955 324.700,133.203 324.700 C 132.451 324.700,132.144 324.780,132.520 324.879 M140.723 325.660 C 141.099 325.758,141.714 325.758,142.090 325.660 C 142.466 325.562,142.158 325.481,141.406 325.481 C 140.654 325.481,140.347 325.562,140.723 325.660 M148.551 326.071 C 150.011 326.147,152.296 326.146,153.630 326.070 C 154.963 325.994,153.770 325.932,150.977 325.933 C 148.184 325.934,147.092 325.996,148.551 326.071 " stroke="none" fill="#428b64" fill-rule="evenodd"></path><path id="path3" d="M357.394 57.931 C 353.604 59.006,349.465 62.473,347.175 66.491 C 346.650 67.411,345.819 68.830,345.328 69.645 C 344.837 70.459,344.589 71.098,344.776 71.064 C 345.618 70.910,346.117 71.131,345.861 71.545 C 345.694 71.815,345.753 71.890,346.009 71.732 C 346.244 71.587,347.700 72.307,349.245 73.332 C 352.253 75.327,354.339 76.624,355.777 77.394 C 356.269 77.658,356.589 78.086,356.490 78.346 C 356.378 78.638,356.568 78.750,356.990 78.640 C 357.365 78.542,357.901 78.737,358.181 79.074 C 358.460 79.412,358.835 79.688,359.013 79.688 C 359.342 79.688,362.925 81.988,363.281 82.427 C 363.389 82.560,364.487 83.333,365.722 84.146 C 366.978 84.971,367.856 85.805,367.713 86.036 C 367.563 86.278,367.644 86.334,367.909 86.170 C 368.234 85.969,371.875 88.071,371.875 88.460 C 371.875 88.485,370.837 88.499,369.569 88.491 C 368.300 88.483,367.340 88.350,367.436 88.195 C 367.532 88.040,367.133 87.794,366.550 87.648 L 365.491 87.382 366.339 86.695 C 366.806 86.317,367.188 85.877,367.188 85.717 C 367.188 85.557,366.806 85.761,366.340 86.170 C 365.584 86.833,365.519 86.840,365.740 86.234 C 365.923 85.734,365.735 85.491,365.025 85.313 C 364.496 85.180,364.063 84.886,364.063 84.658 C 364.063 84.431,363.931 84.377,363.770 84.538 C 363.487 84.820,363.444 84.965,363.324 86.035 C 363.286 86.375,363.154 86.345,362.891 85.938 C 362.596 85.481,362.511 85.589,362.506 86.426 C 362.501 87.392,362.362 87.500,361.133 87.500 C 360.203 87.500,359.766 87.680,359.766 88.063 C 359.766 88.372,359.563 88.751,359.315 88.904 C 359.035 89.077,358.970 89.012,359.142 88.732 C 359.296 88.484,359.254 88.281,359.049 88.281 C 358.845 88.281,358.579 88.538,358.459 88.851 C 358.313 89.230,357.840 89.370,357.044 89.269 C 356.370 89.184,355.945 89.276,356.072 89.481 C 356.195 89.680,356.192 89.844,356.064 89.844 C 355.597 89.844,347.656 84.610,347.656 84.302 C 347.656 84.127,347.501 83.984,347.311 83.984 C 346.744 83.984,341.016 80.376,341.016 80.018 C 341.016 79.836,340.767 79.688,340.462 79.688 C 340.158 79.687,339.820 79.468,339.712 79.199 C 339.603 78.931,339.501 79.085,339.484 79.542 C 339.467 79.999,339.058 80.667,338.574 81.025 C 338.091 81.384,337.940 81.555,338.240 81.406 C 338.628 81.212,338.579 81.481,338.070 82.343 C 337.678 83.007,337.233 83.475,337.082 83.381 C 336.931 83.288,336.831 83.517,336.861 83.891 C 336.890 84.267,336.683 84.522,336.397 84.463 C 336.112 84.404,335.991 84.535,336.126 84.755 C 336.433 85.252,335.386 86.818,335.003 86.435 C 334.850 86.282,334.833 86.441,334.967 86.789 C 335.100 87.136,334.995 87.554,334.732 87.716 C 334.406 87.917,334.355 87.849,334.570 87.500 C 334.775 87.169,334.733 87.083,334.452 87.257 C 334.214 87.404,334.103 87.744,334.205 88.012 C 334.308 88.280,334.112 88.845,333.769 89.269 C 333.426 89.693,333.273 89.792,333.430 89.490 C 333.619 89.127,333.560 89.037,333.257 89.224 C 333.006 89.380,332.901 89.670,333.024 89.870 C 333.315 90.342,332.243 91.879,331.878 91.513 C 331.725 91.360,331.708 91.519,331.842 91.867 C 331.975 92.215,331.870 92.632,331.607 92.794 C 331.281 92.995,331.230 92.927,331.445 92.578 C 331.656 92.237,331.609 92.161,331.304 92.349 C 331.052 92.505,330.948 92.795,331.071 92.995 C 331.368 93.476,330.286 95.000,329.913 94.626 C 329.753 94.467,329.658 94.512,329.701 94.727 C 329.868 95.552,329.671 96.130,329.301 95.901 C 329.072 95.759,329.020 95.935,329.172 96.333 C 329.334 96.755,329.277 96.909,329.017 96.748 C 328.782 96.603,328.627 96.786,328.657 97.172 C 328.687 97.548,328.480 97.804,328.194 97.744 C 327.909 97.685,327.787 97.817,327.923 98.037 C 328.236 98.543,327.179 100.096,326.788 99.705 C 326.628 99.545,326.533 99.590,326.576 99.805 C 326.752 100.677,326.537 101.202,326.112 100.939 C 325.832 100.767,325.767 100.832,325.939 101.111 C 326.267 101.642,325.254 103.248,324.847 102.841 C 324.693 102.688,324.677 102.847,324.811 103.195 C 324.944 103.543,324.838 103.960,324.576 104.122 C 324.250 104.324,324.199 104.255,324.414 103.906 C 324.619 103.575,324.577 103.489,324.296 103.663 C 324.058 103.811,323.972 104.218,324.107 104.569 C 324.258 104.964,324.194 105.109,323.939 104.951 C 323.704 104.806,323.549 104.989,323.579 105.375 C 323.609 105.751,323.402 106.007,323.115 105.947 C 322.831 105.888,322.709 106.020,322.845 106.240 C 323.122 106.688,322.123 108.321,321.781 107.979 C 321.661 107.859,321.589 108.080,321.621 108.470 C 321.653 108.860,321.466 109.138,321.205 109.087 C 320.913 109.029,320.826 109.241,320.979 109.639 C 321.133 110.040,321.070 110.188,320.814 110.029 C 320.579 109.884,320.424 110.067,320.454 110.453 C 320.484 110.827,320.294 111.091,320.034 111.040 C 319.773 110.989,319.645 111.170,319.749 111.442 C 319.854 111.714,319.659 112.283,319.316 112.707 C 318.973 113.130,318.821 113.213,318.979 112.891 C 319.145 112.552,319.118 112.440,318.915 112.625 C 318.722 112.802,318.562 113.241,318.560 113.602 C 318.557 113.963,318.322 114.210,318.037 114.150 C 317.753 114.091,317.631 114.223,317.767 114.443 C 318.088 114.963,317.021 116.491,316.602 116.111 C 316.425 115.951,316.407 116.040,316.562 116.308 C 316.858 116.823,315.906 118.511,315.531 118.136 C 315.411 118.015,315.339 118.236,315.371 118.626 C 315.403 119.017,315.216 119.294,314.955 119.243 C 314.663 119.186,314.576 119.397,314.729 119.795 C 314.883 120.197,314.820 120.344,314.564 120.185 C 314.329 120.040,314.174 120.223,314.204 120.610 C 314.234 120.983,314.044 121.247,313.784 121.196 C 313.523 121.145,313.403 121.347,313.517 121.645 C 313.632 121.943,313.510 122.319,313.248 122.482 C 312.922 122.683,312.871 122.614,313.086 122.266 C 313.291 121.934,313.249 121.849,312.968 122.022 C 312.729 122.170,312.618 122.510,312.721 122.778 C 312.824 123.045,312.627 123.611,312.284 124.035 C 311.941 124.458,311.789 124.558,311.945 124.256 C 312.134 123.892,312.076 123.803,311.773 123.990 C 311.521 124.146,311.431 124.460,311.573 124.690 C 311.715 124.919,311.410 125.450,310.896 125.869 C 310.382 126.288,310.206 126.501,310.505 126.343 C 310.890 126.141,310.840 126.411,310.336 127.265 C 309.944 127.929,309.481 128.386,309.308 128.279 C 309.135 128.172,309.083 128.318,309.193 128.604 C 309.302 128.890,309.112 129.470,308.769 129.894 C 308.426 130.318,308.273 130.417,308.430 130.115 C 308.619 129.752,308.560 129.662,308.257 129.849 C 308.006 130.005,307.916 130.320,308.058 130.549 C 308.199 130.779,307.895 131.309,307.380 131.728 C 306.866 132.147,306.663 132.377,306.929 132.240 C 307.248 132.076,307.334 132.196,307.181 132.595 C 307.054 132.927,306.812 133.114,306.644 133.010 C 306.476 132.906,306.362 133.127,306.392 133.500 C 306.421 133.874,306.232 134.138,305.971 134.087 C 305.710 134.036,305.590 134.238,305.705 134.535 C 305.819 134.833,305.698 135.210,305.435 135.372 C 305.109 135.574,305.058 135.505,305.273 135.156 C 305.487 134.811,305.437 134.739,305.120 134.935 C 304.487 135.326,305.052 135.978,307.332 137.489 C 309.325 138.809,310.149 138.915,312.353 138.138 C 314.576 137.355,315.357 137.812,315.985 140.264 C 317.263 145.250,322.394 147.839,327.832 146.242 C 328.412 146.072,328.516 146.309,328.516 147.800 C 328.516 150.212,329.066 151.474,330.963 153.418 C 333.057 155.562,333.206 155.533,334.969 152.637 C 335.787 151.294,339.746 144.922,343.766 138.477 C 366.796 101.558,368.940 97.939,367.987 97.587 C 367.547 97.424,367.188 97.178,367.188 97.041 C 367.188 96.904,367.451 96.893,367.773 97.016 C 368.137 97.156,368.359 97.014,368.359 96.644 C 368.359 96.316,368.196 96.149,367.996 96.272 C 367.796 96.396,367.519 96.314,367.381 96.090 C 367.243 95.867,367.274 95.709,367.451 95.740 C 368.241 95.877,368.505 95.659,367.969 95.313 C 367.475 94.993,367.497 94.933,368.108 94.928 C 368.591 94.924,368.759 95.116,368.611 95.503 C 368.447 95.930,368.618 96.049,369.252 95.949 C 369.884 95.851,370.084 95.588,369.995 94.977 C 369.910 94.393,370.086 94.131,370.581 94.110 C 371.013 94.091,371.094 94.000,370.788 93.878 C 370.512 93.767,370.028 93.890,369.713 94.152 C 369.257 94.530,369.139 94.518,369.135 94.091 C 369.130 93.663,369.055 93.671,368.765 94.129 C 368.565 94.445,368.266 94.568,368.099 94.401 C 367.743 94.046,368.762 93.321,369.220 93.604 C 369.563 93.816,369.582 93.706,369.612 91.309 C 369.631 89.797,369.551 89.658,368.727 89.755 C 368.229 89.813,367.936 89.747,368.075 89.607 C 368.767 88.915,370.752 89.073,370.521 89.802 C 370.378 90.252,370.509 90.617,370.860 90.752 C 371.454 90.979,371.446 89.962,370.846 88.963 C 370.649 88.635,370.769 88.651,371.214 89.013 C 371.578 89.308,371.875 89.791,371.875 90.087 C 371.875 92.529,375.844 87.102,377.775 82.018 C 382.953 68.392,370.868 54.110,357.394 57.931 M343.359 80.715 C 343.359 81.211,345.529 82.466,345.844 82.151 C 345.981 82.014,346.094 82.194,346.094 82.552 C 346.094 82.910,346.254 83.203,346.450 83.203 C 346.646 83.203,346.773 82.983,346.732 82.715 C 346.591 81.790,346.067 81.285,345.481 81.510 C 345.157 81.634,344.548 81.423,344.126 81.042 C 343.704 80.660,343.359 80.513,343.359 80.715 M347.490 81.863 C 346.480 82.873,348.494 85.410,349.882 84.877 C 350.322 84.709,350.342 84.587,349.971 84.357 C 349.703 84.192,349.287 84.133,349.046 84.225 C 348.777 84.328,348.630 83.972,348.668 83.310 C 348.704 82.692,348.932 82.273,349.199 82.334 C 349.457 82.393,349.547 82.246,349.399 82.007 C 349.206 81.694,349.012 81.691,348.706 81.997 C 348.060 82.643,347.492 82.504,348.047 81.836 C 348.690 81.062,348.271 81.082,347.490 81.863 M362.368 82.907 C 362.537 83.177,362.648 83.750,362.613 84.180 C 362.563 84.807,362.590 84.825,362.750 84.273 C 362.860 83.894,363.100 83.677,363.284 83.791 C 363.468 83.904,363.712 83.844,363.828 83.657 C 363.943 83.470,363.593 83.115,363.049 82.867 C 362.265 82.510,362.124 82.518,362.368 82.907 M368.240 86.969 C 367.824 87.384,368.345 87.872,368.956 87.637 C 369.270 87.517,369.430 87.261,369.311 87.068 C 369.057 86.659,368.593 86.615,368.240 86.969 M354.492 87.457 C 353.707 87.628,353.483 87.814,353.812 88.022 C 354.394 88.389,355.859 87.996,355.859 87.474 C 355.859 87.273,355.815 87.130,355.762 87.156 C 355.708 87.181,355.137 87.317,354.492 87.457 M357.243 87.864 C 356.976 88.295,357.593 88.762,357.953 88.401 C 358.325 88.029,358.256 87.500,357.836 87.500 C 357.633 87.500,357.367 87.664,357.243 87.864 M360.161 90.179 C 360.646 90.698,360.632 90.741,360.046 90.516 C 359.070 90.142,359.225 90.901,360.355 92.031 C 360.916 92.592,361.542 92.894,361.820 92.737 C 362.188 92.529,362.197 92.580,361.857 92.949 C 361.504 93.331,360.950 93.142,359.263 92.062 C 357.002 90.616,356.252 89.844,357.110 89.844 C 357.393 89.844,357.844 90.195,358.112 90.625 C 358.381 91.055,358.819 91.392,359.085 91.375 C 359.465 91.351,359.464 91.302,359.080 91.147 C 358.810 91.038,358.705 90.761,358.847 90.531 C 359.000 90.284,358.921 90.228,358.654 90.392 C 358.406 90.546,358.203 90.514,358.203 90.323 C 358.203 89.409,359.362 89.324,360.161 90.179 M365.380 95.102 C 365.515 95.003,365.540 95.036,365.436 95.176 C 365.332 95.316,365.551 95.683,365.924 95.991 C 366.297 96.299,365.898 96.157,365.039 95.674 C 363.098 94.585,362.258 93.831,363.915 94.666 C 364.586 95.005,365.246 95.200,365.380 95.102 M79.395 187.305 C 79.400 188.164,79.480 188.470,79.573 187.984 C 79.667 187.498,79.663 186.795,79.565 186.421 C 79.467 186.048,79.391 186.445,79.395 187.305 M112.586 252.188 C 112.542 252.727,112.664 253.070,112.858 252.950 C 113.053 252.830,113.174 252.473,113.128 252.158 C 112.981 251.156,112.670 251.174,112.586 252.188 M138.063 261.291 C 138.184 261.486,138.633 261.554,139.063 261.441 C 140.138 261.160,140.041 260.938,138.844 260.938 C 138.294 260.938,137.943 261.097,138.063 261.291 " stroke="none" fill="#e55336" fill-rule="evenodd"></path><path id="path4" d="M159.282 52.620 C 159.768 52.713,160.471 52.710,160.844 52.612 C 161.218 52.514,160.820 52.438,159.961 52.442 C 159.102 52.447,158.796 52.527,159.282 52.620 M164.160 64.332 C 164.536 64.430,165.151 64.430,165.527 64.332 C 165.903 64.234,165.596 64.153,164.844 64.153 C 164.092 64.153,163.784 64.234,164.160 64.332 M151.660 116.676 C 152.036 116.774,152.651 116.774,153.027 116.676 C 153.403 116.577,153.096 116.497,152.344 116.497 C 151.592 116.497,151.284 116.577,151.660 116.676 M254.325 140.919 C 251.421 142.399,251.380 142.574,251.256 154.227 L 251.145 164.648 254.967 164.688 C 257.940 164.719,258.398 164.661,257.031 164.424 C 256.064 164.257,254.438 164.107,253.418 164.091 L 251.563 164.063 251.563 154.388 C 251.563 139.329,249.289 140.626,275.684 140.626 L 295.703 140.625 295.703 153.292 L 295.703 165.958 294.596 166.511 C 293.578 167.018,293.405 166.991,292.447 166.167 C 290.941 164.872,288.970 164.449,284.766 164.520 L 281.055 164.582 285.547 164.829 C 289.988 165.073,291.223 165.415,292.786 166.834 C 293.559 167.536,293.615 167.535,294.837 166.791 L 296.094 166.027 296.094 153.131 L 296.094 140.234 275.879 140.235 C 257.405 140.236,255.549 140.294,254.325 140.919 M349.089 143.457 C 347.953 145.229,345.716 148.757,344.117 151.296 C 339.879 158.029,335.430 162.221,330.512 164.115 C 329.161 164.636,329.636 164.810,331.445 164.457 C 332.305 164.289,332.656 164.131,332.227 164.105 C 331.704 164.074,332.300 163.546,334.028 162.509 C 339.184 159.415,340.449 157.873,348.780 144.531 L 351.097 140.820 362.170 140.616 L 373.242 140.411 362.198 140.323 L 351.154 140.234 349.089 143.457 M374.532 141.278 C 377.098 142.543,376.953 139.866,376.953 186.119 L 376.953 228.136 375.616 229.596 L 374.279 231.055 314.971 231.254 L 255.664 231.453 314.394 231.547 C 379.541 231.651,374.963 231.829,376.607 229.133 C 377.624 227.466,377.770 144.926,376.760 142.973 C 376.108 141.712,374.745 140.620,373.839 140.634 C 373.511 140.639,373.823 140.929,374.532 141.278 M334.408 164.594 C 334.497 164.671,335.713 164.830,337.109 164.947 C 338.633 165.075,339.258 165.035,338.672 164.846 C 337.708 164.535,334.092 164.321,334.408 164.594 M261.137 165.724 C 265.399 167.370,268.135 169.739,269.794 173.219 L 270.480 174.658 270.982 173.207 C 272.101 169.975,275.242 166.994,279.000 165.598 C 280.130 165.178,280.527 164.935,279.883 165.057 C 276.563 165.689,272.480 168.876,271.131 171.888 L 270.440 173.432 269.184 171.493 C 267.197 168.427,263.277 165.686,259.961 165.044 C 259.316 164.919,259.846 165.225,261.137 165.724 M342.406 166.315 C 350.950 169.794,355.452 177.035,355.457 187.305 C 355.464 203.225,345.313 215.412,330.896 216.794 C 328.075 217.064,328.036 217.081,330.094 217.133 C 338.485 217.345,348.410 210.725,352.559 202.148 C 359.999 186.766,353.988 167.956,340.820 165.418 C 340.176 165.294,340.889 165.698,342.406 166.315 M15.746 185.352 C 15.748 186.641,15.821 187.121,15.908 186.419 C 15.995 185.717,15.993 184.662,15.904 184.075 C 15.815 183.488,15.744 184.063,15.746 185.352 M26.653 185.938 C 26.653 186.689,26.734 186.997,26.832 186.621 C 26.930 186.245,26.930 185.630,26.832 185.254 C 26.734 184.878,26.653 185.186,26.653 185.938 M15.724 199.414 C 15.728 200.273,15.808 200.579,15.901 200.093 C 15.995 199.607,15.991 198.904,15.893 198.531 C 15.796 198.157,15.719 198.555,15.724 199.414 M307.617 214.670 C 306.973 215.204,305.654 215.904,304.688 216.226 C 303.192 216.724,303.131 216.780,304.280 216.602 C 305.023 216.487,306.410 215.886,307.364 215.266 L 309.097 214.139 310.932 215.268 C 314.458 217.438,316.817 217.948,319.666 217.157 C 321.774 216.571,321.286 216.381,319.012 216.902 C 316.617 217.450,314.324 216.893,311.269 215.023 C 308.670 213.432,309.066 213.470,307.617 214.670 M261.621 214.677 C 260.076 215.515,260.296 215.732,261.911 214.962 C 263.220 214.338,263.311 214.344,264.157 215.118 C 265.185 216.058,267.315 217.189,268.047 217.184 C 268.326 217.182,267.676 216.770,266.602 216.269 C 265.527 215.768,264.407 215.067,264.112 214.711 C 263.462 213.924,263.019 213.918,261.621 214.677 M279.252 214.789 C 277.155 216.423,275.557 216.961,272.070 217.205 L 268.555 217.452 271.759 217.515 C 274.809 217.575,275.108 217.502,277.992 215.983 C 281.407 214.184,282.303 214.168,284.686 215.857 L 286.133 216.883 284.961 215.838 C 282.818 213.927,280.827 213.561,279.252 214.789 M258.398 216.284 C 257.539 216.616,255.693 217.018,254.297 217.177 L 251.758 217.467 253.739 217.523 C 255.623 217.575,259.146 216.690,259.941 215.964 C 260.419 215.528,260.280 215.557,258.398 216.284 M322.656 216.568 C 323.408 216.876,324.727 217.118,325.586 217.106 L 327.148 217.083 325.391 216.807 C 324.424 216.655,323.105 216.413,322.461 216.269 C 321.402 216.034,321.421 216.063,322.656 216.568 M293.750 216.852 C 293.213 217.070,291.336 217.190,289.578 217.120 C 287.691 217.045,286.626 217.128,286.976 217.324 C 287.302 217.506,289.091 217.529,290.952 217.374 C 292.813 217.219,296.270 217.087,298.633 217.080 C 302.073 217.069,302.540 217.008,300.977 216.771 C 298.206 216.351,294.894 216.388,293.750 216.852 M251.244 221.985 C 251.153 228.257,252.399 231.299,255.033 231.235 C 255.380 231.226,255.106 230.977,254.424 230.680 C 252.175 229.702,251.783 228.588,251.537 222.480 L 251.316 216.992 251.244 221.985 M63.867 280.859 C 64.706 281.719,65.481 282.422,65.588 282.422 C 65.696 282.422,65.097 281.719,64.258 280.859 C 63.419 280.000,62.644 279.297,62.537 279.297 C 62.429 279.297,63.028 280.000,63.867 280.859 " stroke="none" fill="#4eb672" fill-rule="evenodd"></path></g></svg>